<svg xmlns="http://www.w3.org/2000/svg" viewBox="0 0 1012.16 153.76"><title>Quantum-Color</title><g id="Layer_2" data-name="Layer 2"><g id="svg4671"><path id="path4032" d="M997.5,131.79c2.89,0,4.21.8,4.21,2.82s-1.32,2.6-4.13,2.6H995v-5.42Zm.55-2h-6.17v16.38H995v-7h3l3.32,7h3.47l-3.67-7.49a4.25,4.25,0,0,0,3.74-4.39C1004.89,131.31,1002.65,129.79,998.05,129.79Zm-.39-6a13.87,13.87,0,0,0-10.07,4.11,14.75,14.75,0,0,0-4.39,10.35,14.65,14.65,0,0,0,14.46,14.49,14.67,14.67,0,0,0,10.28-4.31,13.92,13.92,0,0,0,4.22-10.18A14.43,14.43,0,0,0,1008,128.1,14.27,14.27,0,0,0,997.66,123.79Zm12.56,14.57a12.09,12.09,0,0,1-3.64,8.74,12.67,12.67,0,0,1-9,3.71,12.41,12.41,0,0,1-8.77-3.74,12.54,12.54,0,0,1-3.73-8.82,12.79,12.79,0,0,1,3.85-9,12.54,12.54,0,0,1,17.73.16,12.38,12.38,0,0,1,3.56,8.93" style="fill:#006ad6"/><path id="path4052" d="M76.25,129.61c-33.38,0-41.58-25-41.58-53.94,0-29.09,8.2-53,41.58-53,31.66,0,40.83,23.94,40.83,53C117.08,104.31,109.32,129.61,76.25,129.61Zm51,.47c0-.61,0-.88,0-1.14,13.59-7.36,24.25-15.18,24.25-53.27C151.51,27,134.82,0,76.25,0,17.08,0,0,27.94,0,75.67c0,51.3,19.53,76.25,76.25,76.25h90.12V130.08H127.25" style="fill:#006ad6"/><path d="M287.7,145.22c-11.17,5-32.85,8.54-53.22,8.54-29.56,0-54.74-11.6-54.74-44.45V43.18h31.53v64.6c0,19.49,11.39,22.77,23.65,22.77,7.67,0,16.21-1.31,21.24-3.5V43.18H287.7Z" style="fill:#006ad6"/><path d="M410.54,146.32a178.23,178.23,0,0,1-51,7.44c-30.88,0-52.56-7.44-52.56-32.84,0-23.87,14.67-33.72,49.49-33.72h22.78V80.84c0-13.57-8.76-17.73-22.12-17.73a124.43,124.43,0,0,0-40.07,7l-4-22.78c13.36-3.94,27.16-7.23,45.11-7.23,30,0,52.34,10.3,52.34,40.73Zm-31.31-42.26H363c-14.67,0-23.65,3.94-23.65,15.11,0,9.85,8.76,15.11,22.12,15.11a65.67,65.67,0,0,0,17.74-2.41Z" style="fill:#006ad6"/><path d="M434,48.66c11.17-4.82,33.06-8.55,53.43-8.55,29.34,0,54.52,11.61,54.52,44.46V150.7H510.39V85.88c0-19.49-11.39-22.77-23.65-22.77-7.66,0-16.2,1.31-21.24,3.94V150.7H434Z" style="fill:#006ad6"/><path d="M555.94,45.81l19-2.63,3.5-33.28H606.3V43.18h34.6v23H606.3V110c0,15.77,7.23,20.36,17.74,20.36a38.13,38.13,0,0,0,20.14-5.91l3.73,21.68c-8.11,4.82-18.18,7.23-30,7.23-24.75,0-42.92-10.51-42.92-40.73V66.17h-19Z" style="fill:#006ad6"/><path d="M771.63,145.22c-11.17,5-32.85,8.54-53.21,8.54-29.57,0-54.75-11.6-54.75-44.45V43.18h31.54v64.6c0,19.49,11.38,22.77,23.64,22.77,7.67,0,16.21-1.31,21.25-3.5V43.18h31.53Z" style="fill:#006ad6"/><path d="M797,48.66c10.94-4.82,31.75-8.55,51.46-8.55,12.26,0,23.21,2.19,32,8.76,10.95-5.47,24.74-8.76,39.63-8.76,27.81,0,51.46,11.61,51.46,43.58v67H940V85c0-18.62-10.51-21.9-22.12-21.9-6.57,0-14.89.87-21.46,5.91,1.54,3.94,2.19,9,2.19,14.45V150.7H870V85c0-18.62-10.3-21.9-22.12-21.9-7,0-14.45,1.31-19.27,3.94V150.7H797Z" style="fill:#006ad6"/></g></g></svg>