<?xml version="1.0" encoding="utf-8"?>
<!-- Generator: Adobe Illustrator 23.0.2, SVG Export Plug-In . SVG Version: 6.00 Build 0)  -->
<svg version="1.1" id="Layer_1" xmlns="http://www.w3.org/2000/svg" xmlns:xlink="http://www.w3.org/1999/xlink" x="0px" y="0px"
	 viewBox="0 0 853 587" style="enable-background:new 0 0 853 587;" xml:space="preserve">
<style type="text/css">
	.st0{fill:#CCCCCC;}
</style>
<g>
	<path class="st0" d="M356.5,384.9c-2.1-2.1-4.6-3.7-7.7-5c-3-1.2-6.4-1.9-10.2-1.9c-3.9,0-7.4,0.7-10.4,2c-3.1,1.3-5.6,3.1-7.7,5.2
		s-3.7,4.5-4.8,7.2c-1,2.9-1.6,5.6-1.6,8.3c0,2.9,0.5,5.8,1.6,8.5s2.7,5.1,4.9,7.2c2.1,2.1,4.7,3.8,7.8,5.1s6.5,1.9,10.4,1.9
		s7.4-0.7,10.4-2c3.1-1.3,5.6-3.1,7.7-5.2c2-2.2,3.6-4.6,4.6-7.3c1-2.7,1.6-5.5,1.6-8.3c0-2.9-0.6-5.8-1.7-8.5
		C360.3,389.4,358.6,387,356.5,384.9z"/>
	<path class="st0" d="M448.5,271.2c3.8-4.2,6.7-9.2,8.6-14.9c2.1-5.9,3.1-12.1,3.1-18.8c0-6.9-1-13.2-3.1-18.9
		c-2-5.7-5-10.6-8.8-14.6s-8.5-7.2-14.1-9.4c-5.6-2.3-11.8-3.4-18.7-3.4h-21.7v93.3h21.7c7.1,0,13.4-1.2,18.9-3.5
		C440,278.6,444.7,275.4,448.5,271.2z"/>
	<polygon class="st0" points="501.3,406.3 524.3,406.3 513,383.5 	"/>
	<path class="st0" d="M248.4,204c-3.8-4-8.5-7.2-14.1-9.4c-5.6-2.3-11.8-3.4-18.7-3.4H194v93.3h21.7c7.1,0,13.4-1.2,18.9-3.5
		c5.6-2.4,10.3-5.6,14.1-9.8c3.8-4.2,6.7-9.2,8.6-14.9c2-5.9,3-12.1,3-18.8c0-6.9-1-13.2-3.1-18.9C255.2,212.9,252.2,208,248.4,204z
		"/>
	<path class="st0" d="M441.4,381.2c-1.1-0.9-2.4-1.7-3.8-2.2s-2.9-0.8-4.4-0.8h-20.9v21.3h21.6c3.1,0,5.8-1,7.9-3s3.2-4.5,3.2-7.6
		c0-1.6-0.3-3-1-4.3S442.4,382.2,441.4,381.2z"/>
	<path class="st0" d="M747.1,161.7c-1.7,0-2.6,0.1-3.3,0.3v7.1h2.8c3.2,0,6-1,6-3.7C752.6,163.2,751.2,161.7,747.1,161.7z"/>
	<path class="st0" d="M747.7,151.9L747.7,151.9l-0.1-0.1c-10,0-17.6,8.2-17.6,18.2c0,10.3,7.6,18.3,17.9,18.3
		c10,0.1,17.3-8,17.3-18.1C765.2,160.1,757.9,151.9,747.7,151.9z M753.7,182c-0.7-0.8-1.2-2.9-1.8-6.1c-0.6-2.5-2.1-3.6-5.4-3.6
		h-2.8v9.9l0,0h-4.3V159c2.4-0.4,4.8-0.7,8-0.7c3.9,0,5.8,0.7,7.3,1.8c1.4,1,2.4,2.8,2.4,4.8c0,2.9-2.1,4.7-4.6,5.5v0.3
		c2.1,0.8,3.2,2.6,3.9,5.5c0.7,3.6,1.1,5,1.7,5.8L753.7,182L753.7,182z"/>
	<path class="st0" d="M0,0.3v586.5h853V0.3H0z M539.4,148.3h42.4l79.4,91v-91h54.3v178.9h-43.2l-78.6-87.9v88h-54.3L539.4,148.3
		L539.4,148.3z M339.5,327.2V148.3h76.1c16.3,0,30.7,2.4,43.2,7.1c12.4,4.7,22.8,11.1,31.2,19.2c8.4,8.1,14.7,17.5,18.9,28.4
		c4.3,10.8,6.4,22.4,6.4,34.7c0,13.6-2.4,25.9-7.1,36.9c-4.7,11-11.5,20.4-20.2,28.2s-19.2,13.9-31.5,18.1
		c-12.3,4.3-25.9,6.4-41,6.4L339.5,327.2L339.5,327.2z M205.8,425.8c-1.8,2.8-4.1,5-7.1,6.8s-6.4,3-10.2,3.8
		c-3.9,0.8-7.9,1.2-12.2,1.2c-6.5,0-12.9-0.8-19.2-2.5c-6.3-1.6-12-3.9-17.1-6.7l7.9-13.6c1,0.9,2.4,1.8,4.2,2.8
		c1.9,1,4.1,2,6.7,2.8c2.6,0.9,5.4,1.6,8.4,2.1c3.1,0.6,6.2,0.8,9.4,0.8c8.9,0,13.3-2.2,13.3-6.5c0-1.3-0.4-2.4-1.3-3.2
		c-0.9-0.9-2.1-1.7-3.7-2.4c-1.6-0.7-3.6-1.4-6-2s-5.2-1.2-8.3-1.9c-4.8-1.1-8.8-2.3-12.2-3.5s-6.2-2.6-8.4-4.2s-3.8-3.4-4.9-5.6
		c-1.1-2.1-1.6-4.6-1.6-7.4c0-3.7,0.8-7,2.5-9.9s3.9-5.3,6.8-7.2c2.9-1.9,6.2-3.3,10-4.3s7.9-1.5,12.2-1.5c6.1,0,11.8,0.8,17,2.5
		c5.2,1.6,9.7,3.5,13.4,5.6l-7.7,13c-0.7-0.5-1.7-1.2-3.2-2s-3.2-1.6-5.3-2.3c-2.1-0.7-4.3-1.4-6.9-1.9c-2.5-0.5-5.2-0.8-8.1-0.8
		c-4.1,0-7.3,0.6-9.5,1.7c-2.2,1.2-3.4,2.9-3.4,5.1c0,1.4,0.5,2.5,1.4,3.4s2.2,1.7,3.9,2.4c1.7,0.7,3.7,1.3,6.1,1.9
		c2.4,0.6,5.1,1.1,8.2,1.7c4.2,0.9,8,1.9,11.4,3s6.3,2.5,8.7,4.1s4.2,3.6,5.5,6s1.9,5.2,1.9,8.5
		C208.4,419.7,207.5,423.1,205.8,425.8z M261.2,378.2v58.6h-17.3v-58.6h-28.3v-13.7h73.8v13.7H261.2z M288.1,302.8
		c-8.7,7.8-19.2,13.9-31.5,18.1c-12.3,4.3-25.9,6.4-41,6.4h-76v-0.1V148.3h76.1c16.3,0,30.7,2.4,43.2,7.1
		c12.4,4.7,22.8,11.1,31.2,19.2c8.4,8.1,14.7,17.5,18.9,28.4c4.3,10.8,6.4,22.4,6.4,34.7c0,13.6-2.4,25.9-7.1,36.9
		S296.8,295,288.1,302.8z M377.6,414.7c-2.1,4.4-5,8.3-8.7,11.6c-3.7,3.4-8.2,6-13.4,8c-5.1,2.1-10.8,3.1-16.9,3.1
		c-6.3,0-12-1-17.2-3.1s-9.6-4.8-13.2-8.3c-3.7-3.4-6.5-7.4-8.6-11.8s-3.1-8.9-3.1-13.6s1.1-9.3,3.2-13.7c2.1-4.4,5.1-8.3,8.9-11.6
		c3.8-3.4,8.2-6.1,13.4-8.1s10.8-3,16.9-3c6.3,0,12,1.1,17.2,3.2s9.6,4.9,13.2,8.3c3.6,3.5,6.4,7.4,8.4,11.8s3,8.9,3,13.5
		C380.7,405.7,379.6,410.3,377.6,414.7z M447.8,436.7L429.2,413h-16.9v23.7H395v-72.2h39.3c4.1,0,7.9,0.7,11.3,2.1s6.4,3.3,8.9,5.6
		c2.5,2.3,4.5,4.9,5.9,7.8s2.1,5.9,2.1,8.8c0,4.6-1.4,8.8-4.3,12.5c-2.9,3.8-6.7,6.6-11.6,8.4l20.9,27L447.8,436.7L447.8,436.7z
		 M536.5,436.8l-8-16.9h-31l-8,16.9H471l34.9-72.3H520l34.8,72.3H536.5z M638,436.9h-14.3v-7.4c-6.7,5.3-14.4,7.9-23.2,7.9
		c-5.6,0-10.9-1-15.8-3c-4.9-2-9.2-4.8-12.9-8.2c-3.7-3.4-6.6-7.4-8.7-11.8c-2.1-4.4-3.1-9.1-3.1-14c0-5,1-9.7,3.1-14.1
		s5-8.2,8.7-11.5s8.1-5.9,13.2-7.8c5.1-1.9,10.6-2.8,16.5-2.8c8,0,14.9,1.4,20.6,4.3c5.7,2.8,10,6.7,12.9,11.5l-13.2,8.8
		c-2-3.4-4.9-6-8.6-7.8c-3.7-1.9-7.8-2.8-12.3-2.8c-3.5,0-6.7,0.6-9.7,1.8c-2.9,1.2-5.4,2.8-7.4,4.9c-2.1,2.1-3.6,4.5-4.8,7.2
		c-1.1,2.8-1.7,5.7-1.7,8.8c0,3.3,0.6,6.3,1.9,9.1c1.2,2.8,3,5.1,5.2,7.1s4.8,3.6,7.8,4.7c3,1.2,6.3,1.7,9.8,1.7
		c7.9,0,15.1-3.1,21.6-9.2v-3.5H606v-11.4h32V436.9z M715.6,436.8h-61.7v-72.3h60.5v13.7h-43.2v15.4h37.3v12.8h-37.3v16.7h44.4
		V436.8z M747.8,192.2c-12.6,0-22.6-9.7-22.6-22.3c0-12.3,10-22,22.6-22h0.1c12.5,0,22.3,9.7,22.3,22
		C770.2,182.5,760.4,192.2,747.8,192.2z"/>
</g>
<g id="Layer_3">
</g>
<g id="Layer_4">
</g>
<g id="Layer_5">
</g>
</svg>
