<?xml version="1.0" encoding="utf-8"?>
<!-- Generator: Adobe Illustrator 23.0.2, SVG Export Plug-In . SVG Version: 6.00 Build 0)  -->
<svg version="1.1" id="Layer_1" xmlns="http://www.w3.org/2000/svg" xmlns:xlink="http://www.w3.org/1999/xlink" x="0px" y="0px"
	 viewBox="0 0 1126.1 769.2" style="enable-background:new 0 0 1126.1 769.2;" xml:space="preserve">
<style type="text/css">
	.st0{fill:#CCCCCC;}
</style>
<path class="st0" d="M147,245.1c-8.4,5.4-19.7,3-25.1-5.5c-0.1-0.1-0.1-0.2-0.2-0.3L4.7,46.7C-5,31.3,0.3,8.1,21.7,0.4
	C22.4,0.1,23.2,0,24,0h122.6c10.1,0,18.5,9.1,18.5,19.4V42c0.1,10.2-8.1,18.5-18.3,18.5H83.3l88.2,147c5.4,8.6,2.8,20-5.7,25.5
	L147,245.1z"/>
<path class="st0" d="M232.4,60.6c-10,0-18-8.1-18-18.1l-0.1-20c0-15.6,12.5-21.5,27.9-21.5l223.5-0.3c18-0.1,33.3,16.5,28.3,39
	c-0.2,0.7-0.5,1.4-0.9,2.1l-61.4,102.4c-5.2,8.4-16.2,11-24.6,5.9c-0.1,0-0.2-0.1-0.2-0.1l-20.6-11.8c-8.4-5.4-10.9-16.6-5.6-25.1
	l31.4-52.4L232.4,60.6z"/>
<path class="st0" d="M337.3,185.9c5.2-8.5,16.2-11.3,24.8-6.1l17.2,10.2c13.5,8,12.1,21.7,4.2,35L271,412.5
	c-9.2,15.5-28,19.4-44.8,3.6c-0.5-0.5-1-1.1-1.3-1.8l-61.5-103.7c-4.5-8.8-1-19.5,7.7-24c0.1,0,0.2-0.1,0.3-0.1l20.7-11.6
	c9-4.4,19.8-0.9,24.4,8l31.1,52L337.3,185.9z"/>
<path class="st0" d="M787,131.9l-13.4-6.4c-7.8-3.7-17.2-0.4-20.9,7.4c0,0.1-0.1,0.1-0.1,0.2l-3.8,7.1l-58.8,125.9l-58.8-125.9
	l-3.8-7.1c-3.6-7.9-12.9-11.3-20.8-7.7c-0.1,0-0.1,0.1-0.2,0.1l-13.4,6.4c-7.9,3.7-11.7,13.7-8,21.7l3.3,6.5l80,171.2
	c3.9,8.3,12.2,13.6,21.3,13.6h0.7c9.1,0,17.4-5.3,21.3-13.6l80-171.2l3.3-6.5C798.7,145.7,794.9,135.7,787,131.9z"/>
<path class="st0" d="M913.2,337l13.4,6.4c7.8,3.7,17.2,0.4,20.9-7.4c0-0.1,0.1-0.1,0.1-0.2l3.8-7.1l58.8-125.9l58.8,125.9l3.8,7.1
	c3.6,7.9,12.9,11.3,20.8,7.7c0.1,0,0.1-0.1,0.2-0.1l13.4-6.4c7.9-3.8,11.7-13.7,8-21.7l-3.3-6.5l-80-171.2
	c-3.9-8.3-12.2-13.6-21.3-13.6h-0.7c-9.1,0-17.4,5.3-21.3,13.6l-80,171.2l-3.3,6.5C901.4,323.3,905.2,333.3,913.2,337z"/>
<path class="st0" d="M1390.3,171.2c8.6,0.4,16-6.2,16.5-14.8c0-0.1,0-0.2,0-0.2l0.5-14.8c0.3-8.7-6.7-16.8-15.5-17.2l-8.1-0.1h-92.4
	c-0.5,0-1.1,0-1.6,0c-24.4,1.6-60.8,19.2-60.8,61c0,42.5,35.9,61.5,55.2,65.7l48.2,11.6c0.7,0.2,1.4,0.3,2.1,0.4
	c2.5,0.4,15.3,3,15.3,17.3c0,8.6-4.3,13.7-12.9,15.1h-90.7l-6.2,0.1c-8.6-0.4-16,6.2-16.5,14.8c0,0.1,0,0.2,0,0.2l-0.5,14.8
	c-0.3,8.7,6.7,16.8,15.5,17.2l7.7,0.1h92.4c0.7,0,1.5,0,2.2-0.1c22.6-2.1,56.3-20.4,56.3-62.3c0-43.3-35-60.6-54.5-63.9l-47.6-11.4
	l-0.7-0.2c-0.7-0.2-18-4-18-19.5c0-10.3,9.9-13.1,16.2-13.8h91.2L1390.3,171.2z"/>
<path class="st0" d="M1709.7,139.6c0-8.7-7.1-15.6-15.7-15.6c-0.1,0-0.2,0-0.3,0h-163.1c-8.7-0.2-15.8,6.7-16,15.3
	c0,0.1,0,0.2,0,0.3v15c0,8.8,7.3,16.5,16.1,16.7h57.9v147.5l0,0v7.6c-0.2,8.7,6.7,15.8,15.3,16c0.1,0,0.2,0,0.3,0h15
	c8.8,0,16.5-7.3,16.7-16.1v-7.6l0,0V171.3h57.9c8.8-0.1,16.1-7.9,16.1-16.7L1709.7,139.6z"/>
</svg>
