<?xml version="1.0" encoding="utf-8"?>
<!-- Generator: Adobe Illustrator 23.0.2, SVG Export Plug-In . SVG Version: 6.00 Build 0)  -->
<svg version="1.1" id="Layer_1" xmlns="http://www.w3.org/2000/svg" xmlns:xlink="http://www.w3.org/1999/xlink" x="0px" y="0px"
	 viewBox="0 0 72 9.2" style="enable-background:new 0 0 72 9.2;" xml:space="preserve">
<path d="M28.1,0.9V0.6L28,0.5h-5l-0.1,0.1v0.3L23,0.9h2.1L25.2,1v6.1l0.1,0.1h0.4l0.1-0.1v-6L25.8,1H28L28.1,0.9L28.1,0.9z
	 M29.2,2.3c-1.3,0-2.1,1-2.1,2.3v0.2c0,1.3,0.7,2.5,2.2,2.5c1.3,0,1.8-0.9,1.9-1.5l-0.1-0.1h-0.4l-0.1,0.1c-0.2,0.6-0.6,1-1.3,1
	c-1.2,0-1.6-1.2-1.6-1.7L27.8,5h3.4l0.1-0.1V4.6C31.4,3.3,30.6,2.3,29.2,2.3L29.2,2.3z M29.2,2.8c0.6,0,1,0.2,1.2,0.6
	c0.2,0.3,0.3,0.7,0.3,1.1l-0.1,0.1h-2.9l-0.1-0.1c0-0.3,0.1-0.7,0.3-1.1C28.3,3,28.7,2.8,29.2,2.8L29.2,2.8z M32.3,4.8
	c0-1.3,0.7-2,1.6-2c1,0,1.3,0.6,1.5,1.2L35.5,4h0.4L36,3.9c-0.1-1-0.9-1.6-2-1.6c-1.2,0-2.2,0.8-2.2,2.5c0,1.7,1,2.5,2.2,2.5
	c1.2,0,1.9-0.7,2-1.6l-0.1-0.1h-0.4l-0.1,0.1c-0.1,0.6-0.5,1.2-1.5,1.2C33,6.8,32.3,6.2,32.3,4.8L32.3,4.8z M40.6,7.1V4.2
	c0-1.2-0.7-1.9-1.7-1.9c-0.7,0-1.2,0.3-1.5,0.8h-0.1V0.6l-0.1-0.1h-0.4l-0.1,0.1v6.6l0.1,0.1h0.4l0.1-0.1V4.5c0-1.1,0.5-1.7,1.5-1.7
	c0.8,0,1.2,0.5,1.2,1.5v2.9l0.1,0.1h0.4L40.6,7.1L40.6,7.1z M45.5,7.1V4.2c0-1.2-0.7-1.9-1.7-1.9c-0.7,0-1.2,0.3-1.5,0.8h-0.1
	l-0.1-0.6L42,2.4h-0.3l-0.1,0.1v4.6l0.1,0.1h0.4l0.1-0.1V4.5c0-1.1,0.5-1.7,1.5-1.7c0.8,0,1.2,0.5,1.2,1.5v2.9L45,7.2L45.5,7.1
	L45.5,7.1L45.5,7.1z M48.3,2.4c-1.2,0-2.2,0.9-2.2,2.5c0,1.6,1,2.5,2.2,2.5s2.2-0.9,2.2-2.5C50.5,3.2,49.5,2.4,48.3,2.4z M48.3,2.8
	c0.5,0,0.9,0.2,1.2,0.6c0.3,0.4,0.5,0.9,0.5,1.5c0,0.6-0.2,1.1-0.5,1.5c-0.3,0.4-0.7,0.5-1.2,0.5c-0.5,0-0.9-0.2-1.2-0.5
	c-0.3-0.4-0.5-0.9-0.5-1.5c0-0.6,0.2-1.2,0.5-1.5C47.4,3,47.8,2.8,48.3,2.8L48.3,2.8z M51.8,7.1V0.6l-0.1-0.1h-0.4l-0.1,0.1v6.6
	l0.1,0.1h0.4L51.8,7.1z M54.6,2.4c-1.2,0-2.2,0.9-2.2,2.5c0,1.6,1,2.5,2.2,2.5s2.2-0.9,2.2-2.5C56.8,3.2,55.9,2.4,54.6,2.4z
	 M54.6,2.8c0.5,0,0.9,0.2,1.2,0.6c0.3,0.4,0.5,0.9,0.5,1.5c0,0.6-0.2,1.1-0.5,1.5c-0.3,0.4-0.7,0.5-1.2,0.5c-0.5,0-0.9-0.2-1.2-0.5
	C53.2,6,53,5.5,53,4.8c0-0.6,0.2-1.2,0.5-1.5C53.8,3,54.2,2.8,54.6,2.8L54.6,2.8z M59.4,2.3c-1.3,0-2,1.1-2,2.5c0,1.5,0.7,2.5,2,2.5
	c0.9,0,1.3-0.4,1.5-0.8v0c0,1.2-0.3,2.2-1.5,2.2c-0.9,0-1.2-0.4-1.2-0.9l-0.1-0.1h-0.4l-0.1,0.1c0.1,0.8,0.7,1.3,1.8,1.3
	c1.2,0,2-0.8,2-2.7v-4l-0.1-0.1h-0.3l-0.1,0.1L61,3.1h-0.1C60.7,2.7,60.2,2.3,59.4,2.3L59.4,2.3z M59.4,2.8c0.5,0,0.9,0.2,1.1,0.5
	c0.3,0.3,0.4,0.8,0.4,1.5c0,0.7-0.1,1.2-0.4,1.5c-0.3,0.3-0.6,0.5-1.1,0.5c-0.5,0-0.9-0.2-1.1-0.5C58,6,57.8,5.5,57.8,4.8
	c0-0.7,0.1-1.2,0.4-1.5C58.5,2.9,58.9,2.8,59.4,2.8L59.4,2.8z M63,1.6V1l-0.1-0.1h-0.4L62.5,1v0.6l0.1,0.1h0.4
	C62.9,1.6,63,1.6,63,1.6z M63,7.1V2.5l-0.1-0.1h-0.4l-0.1,0.1v4.6l0.1,0.1h0.4C62.9,7.2,63,7.1,63,7.1z M65.8,2.3
	c-1.3,0-2.1,1-2.1,2.3v0.2c0,1.3,0.7,2.5,2.2,2.5c1.3,0,1.8-0.9,1.9-1.5l-0.1-0.1h-0.4l-0.1,0.1c-0.2,0.6-0.6,1-1.3,1
	c-1.2,0-1.6-1.2-1.6-1.7L64.4,5h3.4l0.1-0.1V4.6C67.9,3.3,67.1,2.3,65.8,2.3L65.8,2.3z M65.8,2.8c0.6,0,1,0.2,1.2,0.6
	c0.2,0.3,0.3,0.7,0.3,1.1l-0.1,0.1h-2.9l-0.1-0.1c0-0.3,0.1-0.7,0.3-1.1C64.8,3,65.2,2.8,65.8,2.8L65.8,2.8z M72,6
	c0-0.9-0.5-1.2-1.5-1.5c-1-0.2-1.5-0.3-1.5-1c0-0.5,0.4-0.8,1.1-0.8c0.9,0,1.2,0.4,1.2,0.9l0.1,0.1h0.4l0.1-0.1c0-1-0.8-1.3-1.7-1.3
	c-1.1,0-1.6,0.6-1.6,1.2c0,0.8,0.6,1.2,1.5,1.3c1,0.2,1.5,0.3,1.5,1.1c0,0.5-0.3,0.9-1.2,0.9c-0.9,0-1.2-0.5-1.2-1.1l-0.1-0.1h-0.4
	l-0.1,0.1c0,0.9,0.7,1.5,1.8,1.5C71.4,7.3,72,6.8,72,6L72,6z"/>
<path d="M22.9,5.8v1.4h-4.3V0.4h1.6v5.4L22.9,5.8L22.9,5.8z M9.8,0L6,2.9C5.6,1.5,4.3,0.4,2.7,0.4H0v6.8h2.8c1.6,0,2.9-1.1,3.2-2.6
	l3.8,2.9l3.8-2.9v2.6H18V5.8h-2.8V0.4h-1.6v2.6L9.9,5.9L9.1,5.2l1.8-1.4l1.9-1.5l-1.1-0.9L8.1,4.3L7.3,3.6l3.6-2.8L9.8,0L9.8,0
	L9.8,0z M1.5,1.8h1.2c0.2,0,0.5,0.1,0.7,0.2C3.6,2,3.8,2.2,4,2.4C4.1,2.5,4.3,2.8,4.4,3c0.1,0.2,0.2,0.5,0.2,0.8
	c0,0.3,0,0.5-0.1,0.8C4.3,4.9,4.2,5.1,4,5.3C3.8,5.5,3.6,5.6,3.4,5.7C3.2,5.8,2.9,5.9,2.6,5.9H1.5L1.5,1.8L1.5,1.8z"/>
</svg>
