<?xml version="1.0" encoding="utf-8"?>
<!-- Generator: Adobe Illustrator 23.0.2, SVG Export Plug-In . SVG Version: 6.00 Build 0)  -->
<svg version="1.1" id="svg4671" xmlns:svg="http://www.w3.org/2000/svg"
	 xmlns="http://www.w3.org/2000/svg" xmlns:xlink="http://www.w3.org/1999/xlink" x="0px" y="0px" viewBox="0 0 1024 162"
	 style="enable-background:new 0 0 1024 162;" xml:space="preserve">
<path id="path4032" d="M1003.4,136.4c2.9,0,4.2,0.8,4.2,2.8c0,1.9-1.3,2.6-4.1,2.6h-2.6v-5.4H1003.4z M1004,134.4h-6.2v16.4h3.1v-7
	h3.1l3.3,7h3.5l-3.7-7.5c2.4-0.5,3.7-2.1,3.7-4.4C1010.8,135.9,1008.6,134.4,1004,134.4z M1003.6,128.4c-3.9,0-7.4,1.4-10.1,4.1
	c-2.8,2.9-4.4,6.5-4.4,10.3c0,3.8,1.5,7.4,4.2,10.1c2.8,2.8,6.4,4.4,10.2,4.4c3.8,0,7.4-1.5,10.3-4.3c2.7-2.7,4.2-6.2,4.2-10.2
	c0-3.8-1.5-7.5-4.2-10.1C1011.1,129.9,1007.5,128.4,1003.6,128.4z M1016.1,142.9c0,3.3-1.3,6.4-3.6,8.7c-2.5,2.4-5.6,3.7-9,3.7
	c-3.2,0-6.4-1.3-8.8-3.7c-2.4-2.4-3.7-5.5-3.7-8.8c0-3.3,1.4-6.5,3.9-9c2.3-2.3,5.4-3.6,8.8-3.6c3.5,0,6.6,1.3,9,3.7
	C1014.9,136.3,1016.1,139.5,1016.1,142.9"/>
<path id="path4036" d="M633.1,134.3c-12.2-1.4-11.4-10.1-11.4-19.9c0-2.9,0-34.8,0-43.3h25.8V50.5h-25.8V28.9h-29.2v21.6h-20.7v20.7
	h20.7v53.6c0,28.7,20.1,32.5,33.1,32.5c11.6,0,22.2-2.3,22.2-2.3s-0.1-21.1-0.1-22.8C642,134.1,638.2,134.8,633.1,134.3"/>
<path id="path4040" d="M931.1,48.4c-14.4,0-27.7,3.2-40.6,9.9c-8.9-6.5-20.5-9.7-35.4-9.7c-14.5,0-37.8,3.4-53,7.7l-1.2,0.3v99.3
	h29.6V72.5c5.8-2.6,14.5-4.4,21.6-4.4c18.6,0,22.4,10.1,22.4,19.8v68h30V75.2c5.5-3.9,15.3-7.2,22-7.2c17.6,0,21.9,9.7,21.9,19.8v68
	h29.4V85C977.8,73.9,973.6,48.4,931.1,48.4"/>
<path id="path4044" d="M264,50.5v84.1c-8.9,2.5-17.4,3.9-25.1,3.4c-16.1-1.1-20.6-5.5-20.6-23.8V50.5h-30.5c0,0-0.3,66.7,0,74.1
	c0.3,7.4-0.7,32.7,51.2,32.7c25.4,0,55.5-5.8,55.5-5.8V50.5H264"/>
<path id="path4048" d="M394.5,134.6c-7.6,2-18.1,4.2-30.4,2.8c-10.5-1.2-20.4-3.6-20.4-14c0-7.5,4.8-13.8,23.9-13.8c0,0,21,0,27,0
	V134.6z M372.6,48.6c-9.9,0-31.3,1.4-46.5,5c0,2.7,0,23,0,23s17.3-9,48.1-9c9.5,0,20.3,3.5,20.3,17.7c0,3.9,0,4.6,0,4.6
	s-35.7,0.5-39.6,0.5c-22.4,0-39.5,12.6-39.1,33c0.5,26.3,25.7,33.6,49.5,33.6c39.3,0,58.6-5.4,58.6-5.4l0-72.2
	C423.9,61.1,408.6,48.6,372.6,48.6"/>
<path id="path4052" d="M82.2,134.2c-33.4,0-41.6-25-41.6-53.9c0-29.1,8.2-53,41.6-53c31.7,0,40.8,23.9,40.8,53
	C123,108.9,115.2,134.2,82.2,134.2z M133.2,134.7c0-0.6,0-0.9,0-1.1c13.6-7.4,24.2-15.2,24.2-53.3c0-48.6-16.7-75.7-75.3-75.7
	C23,4.6,5.9,32.5,5.9,80.3c0,51.3,19.5,76.3,76.2,76.3c1.3,0,90.1,0,90.1,0v-21.8H133.2"/>
<path id="path4056" d="M745.1,50.6v84.1c-8.9,2.5-17.4,3.9-25.1,3.3c-16.1-1.1-20.6-5.5-20.6-23.8V50.6h-30.5c0,0-0.3,66.7,0,74.1
	c0.3,7.4-0.7,32.7,51.2,32.7c25.4,0,55.5-5.8,55.5-5.8V50.6H745.1"/>
<path id="path4060" d="M480.4,155.7V71.6c8.9-2.5,17.4-3.9,25.1-3.4c16.1,1.1,20.6,5.5,20.6,23.8v63.7h30.5c0,0,0.3-66.7,0-74.1
	c-0.3-7.4,0.7-32.7-51.2-32.7c-25.4,0-55.5,5.8-55.5,5.8v101.1H480.4"/>
</svg>
