<?xml version="1.0" encoding="utf-8"?>
<!-- Generator: Adobe Illustrator 23.0.2, SVG Export Plug-In . SVG Version: 6.00 Build 0)  -->
<svg version="1.1" id="Layer_1" xmlns="http://www.w3.org/2000/svg" xmlns:xlink="http://www.w3.org/1999/xlink" x="0px" y="0px"
	 viewBox="0 0 225.5 40.8" style="enable-background:new 0 0 225.5 40.8;" xml:space="preserve">
<g transform="translate(0.029 -0.007)">
	<g transform="translate(-0.029 0.007)">
		<path d="M48.7,9.1h19.1c3.9,0,5.7,0.3,6.9,1.4s1.9,2.9,1.9,5.9c0,4.1-1,5.7-3.8,6.4c2.8,0.5,3.6,1.6,3.5,5v3.5h-6.8v-2.8
			c0-2.4-0.7-2.9-3.7-2.8H55.4v5.6h-6.7V9.1z M65.9,20.3c3.2,0,3.9-0.4,3.9-2.6c0-1.4-0.1-2-0.6-2.5s-1.1-0.6-3.1-0.6H55.4v5.7
			L65.9,20.3z M81.5,9.1h6.7v22.2h-6.7V9.1z M115.2,16.6c0-1.7-0.8-2.4-2.8-2.5h-6.5c-3.2,0-3.2,0-4,0.2c-1.1,0.2-2,1.2-1.9,2.3
			c-0.1,1.3-0.2,2.7-0.2,4.1c0,3,0.3,4.2,1.2,4.8c1.1,0.6,2.3,0.8,3.5,0.7h4.9c4.4,0,5.2-0.2,5.8-1.7c0.1-0.4,0.1-0.8,0.1-1.2v-0.5
			h-8.5v-4.1h15.2v3.1c0,3.7-0.1,4.9-0.6,6.2c-0.8,2.1-2.3,3.1-5.1,3.3c-0.7,0.1-2.7,0.1-9.3,0.1c-2.8,0.1-5.6,0-8.4-0.4
			c-2-0.2-3.8-1.5-4.6-3.4c-0.7-1.5-0.8-3.1-0.8-7.2c0-4.8,0.3-6.6,1.1-8.2s2.6-2.6,5.4-3c2.8-0.3,5.6-0.4,8.4-0.3
			c6,0,8,0.1,9.4,0.4c3.4,0.9,4.5,2.6,4.5,7.2L115.2,16.6z M136.6,9.1h9l12.1,22.2h-7.4l-2.2-4h-14.3l-2.1,4h-7.6L136.6,9.1z
			 M145.8,22.7l-4.8-8.8l-4.7,8.8H145.8z M161.3,9.1h19.1c4.7,0,6.9,0.5,8.4,2.1c1.2,1.2,1.7,2.6,2,5.4c0.1,1,0.1,2.5,0.1,3.6
			c0,1.9-0.1,3.7-0.3,5.6c-0.3,2.5-2.1,4.6-4.6,5.2c-1.5,0.3-3.1,0.4-4.6,0.3h-20L161.3,9.1z M179.3,26c0.9,0.1,1.9,0,2.8-0.3
			c1.6-0.5,2.1-1.7,2.1-5.5c0-4.7-0.8-5.6-4.7-5.6H168V26H179.3z M219.7,9.2c3.4,0.6,5.1,2.5,5.6,6c0.2,1.8,0.2,3.6,0.2,5.4
			c0,5.3-0.6,7.5-2.5,9.1c-1.3,1.1-3.2,1.7-6.4,1.8c-1.2,0.1-4.2,0.1-6.3,0.1c-3.1,0.1-6.2,0-9.3-0.4c-2.5-0.4-3.9-1.4-4.7-3
			s-1.1-3.3-1.1-8.1c-0.1-2.1,0-4.1,0.5-6.2c0.5-2.2,2.2-3.9,4.4-4.4c1.9-0.5,3.9-0.7,9.7-0.7C213.1,8.8,216.4,8.9,219.7,9.2
			L219.7,9.2z M203.1,15.1c-0.9,0.7-1.2,1.8-1.2,5c0,3.2,0.3,4.5,1.1,5.1c0.8,0.7,2,0.9,7.1,0.9c5.8,0,7-0.2,7.8-1.2
			c0.6-0.8,0.8-1.9,0.8-4.9c0-5.6-0.1-5.7-8.4-5.7C205.4,14.3,204,14.5,203.1,15.1L203.1,15.1z"/>
		<path d="M3.7,33.6c0.4,0.4,0.6,0.9,0.6,1.4c0,1.2-0.9,2.2-2.1,2.2C1,37.3,0,36.4,0,35.2c0-0.6,0.2-1.2,0.6-1.6V8.2
			c0.1-0.9,0.9-1.5,1.8-1.3c0.7,0.1,1.2,0.6,1.3,1.3L3.7,33.6z M31.3,31.3c0.4,1.1,1.6,1.7,2.7,1.4s1.7-1.6,1.4-2.7
			c-0.3-0.9-1.1-1.5-2-1.5c-0.2,0-0.3,0-0.5,0.1L23,22.9l12.2-7.1c0.5-0.3,0.8-0.8,0.8-1.4c0-0.6-0.3-1.1-0.8-1.4L22.5,5.4l2-1.1
			l3.7,2.1c0.3,1.1,1.5,1.8,2.6,1.5c1.1-0.3,1.8-1.5,1.5-2.6c-0.3-0.9-1.1-1.6-2-1.6c-0.2,0-0.3,0-0.5,0l-4.5-2.6
			c-0.5-0.3-1.1-0.3-1.6,0L8.9,9.4V7.1L14,4.2c1.2,0.3,2.3-0.4,2.6-1.6c0.3-1.2-0.4-2.3-1.6-2.6c-1.1-0.3-2.2,0.4-2.5,1.4L6.6,4.8
			C6.1,5.1,5.8,5.6,5.8,6.1v33.2c0.1,0.9,0.9,1.5,1.7,1.4c0.8-0.1,1.4-0.7,1.4-1.4v-8.6l10,5.4c0.2,0.1,0.5,0.2,0.7,0.2
			c0.6,0,1.1-0.3,1.4-0.8c0.4-0.7,0.1-1.7-0.6-2.1c0,0,0,0,0,0L8.9,27.1V19L20,12.9c0.8-0.4,1-1.4,0.6-2.2c-0.4-0.7-1.3-1-2.1-0.6
			l-9.6,5.3V13l10.4-5.8l6.8,4.1l-14.6,8.5c-0.8,0.4-1,1.4-0.6,2.1c0.3,0.5,0.8,0.8,1.3,0.8c0.3,0,0.6-0.1,0.8-0.2l16.1-9.4l2,1.2
			L13.8,24.7c-0.8,0.4-1,1.4-0.6,2.1c0.1,0.3,0.4,0.5,0.6,0.6l17.5,9.7c0.4,1.1,1.6,1.7,2.7,1.4c1.1-0.4,1.7-1.6,1.4-2.7
			c-0.4-1.1-1.5-1.7-2.6-1.4L17.8,26l2-1.2L31.3,31.3z"/>
	</g>
</g>
</svg>
