<svg xmlns="http://www.w3.org/2000/svg" viewBox="0 0 1709.87 426.2"><title>Asset 2</title><g id="Layer_2" data-name="Layer 2"><g id="Layer_1-2" data-name="Layer 1"><path d="M147,245.1a18.14,18.14,0,0,1-25.1-5.5c-.1-.1-.1-.2-.2-.3L4.67,46.7C-5,31.3.27,8.1,21.67.4A5.87,5.87,0,0,1,24,0h122.6c10.1,0,18.5,9.1,18.5,19.4V42a18.29,18.29,0,0,1-18.3,18.5H83.27l88.2,147a18.65,18.65,0,0,1-5.7,25.5Z"/><path d="M232.37,60.6a18,18,0,0,1-18-18.1l-.1-20c0-15.6,12.5-21.5,27.9-21.5L465.67.7c18-.1,33.3,16.5,28.3,39a9.49,9.49,0,0,1-.9,2.1l-61.4,102.4a18,18,0,0,1-24.6,5.9.35.35,0,0,1-.2-.1l-20.6-11.8a18.33,18.33,0,0,1-5.6-25.1l31.4-52.4Z"/><path d="M337.27,185.9a18,18,0,0,1,24.8-6.1l17.2,10.2c13.5,8,12.1,21.7,4.2,35L271,412.5c-9.2,15.5-28,19.4-44.8,3.6a5.94,5.94,0,0,1-1.3-1.8l-61.5-103.7a17.86,17.86,0,0,1,7.7-24c.1,0,.2-.1.3-.1l20.7-11.6a18.32,18.32,0,0,1,24.4,8l31.1,52Z"/><path d="M787,131.9l-13.4-6.4a15.71,15.71,0,0,0-20.9,7.4c0,.1-.1.1-.1.2l-3.8,7.1L690,266.1l-58.8-125.9-3.8-7.1a15.66,15.66,0,0,0-20.8-7.7c-.1,0-.1.1-.2.1L593,131.9a16.73,16.73,0,0,0-8,21.7l3.3,6.5,80,171.2a23.57,23.57,0,0,0,21.3,13.6h.7a23.57,23.57,0,0,0,21.3-13.6l80-171.2,3.3-6.5C798.67,145.7,794.87,135.7,787,131.9Z"/><path d="M913.17,337l13.4,6.4a15.71,15.71,0,0,0,20.9-7.4c0-.1.1-.1.1-.2l3.8-7.1,58.8-125.9L1069,328.7l3.8,7.1a15.66,15.66,0,0,0,20.8,7.7c.1,0,.1-.1.2-.1l13.4-6.4c7.9-3.8,11.7-13.7,8-21.7l-3.3-6.5-80-171.2a23.57,23.57,0,0,0-21.3-13.6h-.7a23.57,23.57,0,0,0-21.3,13.6l-80,171.2-3.3,6.5C901.37,323.3,905.17,333.3,913.17,337Z"/><path d="M1390.27,171.2a15.8,15.8,0,0,0,16.5-14.8v-.2l.5-14.8c.3-8.7-6.7-16.8-15.5-17.2l-8.1-.1h-94c-24.4,1.6-60.8,19.2-60.8,61,0,42.5,35.9,61.5,55.2,65.7l48.2,11.6a15.52,15.52,0,0,0,2.1.4c2.5.4,15.3,3,15.3,17.3,0,8.6-4.3,13.7-12.9,15.1h-90.7l-6.2.1a15.8,15.8,0,0,0-16.5,14.8v.2l-.5,14.8c-.3,8.7,6.7,16.8,15.5,17.2l7.7.1h92.4a16.2,16.2,0,0,0,2.2-.1c22.6-2.1,56.3-20.4,56.3-62.3,0-43.3-35-60.6-54.5-63.9l-47.6-11.4-.7-.2c-.7-.2-18-4-18-19.5,0-10.3,9.9-13.1,16.2-13.8h97.9Z"/><path d="M1709.67,139.6A15.64,15.64,0,0,0,1694,124h-163.4a15.65,15.65,0,0,0-16,15.3v15.3c0,8.8,7.3,16.5,16.1,16.7h57.9V318.8h0v7.6a15.65,15.65,0,0,0,15.3,16h15.3c8.8,0,16.5-7.3,16.7-16.1v-7.6h0V171.3h57.9c8.8-.1,16.1-7.9,16.1-16.7Z"/></g></g></svg>