<?xml version="1.0" encoding="utf-8"?>
<!-- Generator: Adobe Illustrator 22.0.1, SVG Export Plug-In . SVG Version: 6.00 Build 0)  -->
<svg version="1.1" id="Layer_1" xmlns="http://www.w3.org/2000/svg" xmlns:xlink="http://www.w3.org/1999/xlink" x="0px" y="0px"
	 viewBox="0 0 543.6 192.7" style="enable-background:new 0 0 543.6 192.7;" xml:space="preserve">
<style type="text/css">
	.st0{fill:#057DB7;}
	.st1{fill:#808080;}
</style>
<g>
	<g>
		<path class="st0" d="M307.3,123c9.2,0,12.7-4.6,13.9-9.2l1.2-1.2h9.2l1.2,1.2c-1.2,10.4-9.2,19.6-25.4,19.6
			c-17.3,0-27.7-11.6-27.7-30.1s10.4-30.1,27.7-30.1c16.2,0,24.3,9.2,25.4,19.6l-1.2,1.2h-9.2l-1.2-1.2c-1.2-4.6-4.6-9.2-13.9-9.2
			c-10.4,0-16.2,6.9-16.2,19.6S296.9,123,307.3,123z"/>
		<path class="st0" d="M363.9,73.3c17.3,0,27.7,11.6,27.7,30.1s-10.4,30.1-27.7,30.1s-27.7-11.6-27.7-30.1S346.6,73.3,363.9,73.3z
			 M363.9,123c10.4,0,16.2-6.9,16.2-19.6s-5.8-19.6-16.2-19.6s-16.2,6.9-16.2,19.6S353.5,123,363.9,123z"/>
		<path class="st0" d="M447.2,132.2h-8.1l-1.2-1.2l-1.2-4.6h-1.2c0,0-4.6,6.9-15,6.9c-16.2,0-25.4-12.7-25.4-30.1
			c0-17.3,9.2-30.1,25.4-30.1c10.4,0,15,6.9,15,6.9h1.2V52.5l1.2-1.2h9.2l1.2,1.2v78.6L447.2,132.2z M421.7,83.7
			c-9.2,0-15,6.9-15,19.6s5.8,19.6,15,19.6c9.2,0,15-5.8,15-19.6C436.8,89.5,431,83.7,421.7,83.7z"/>
		<path class="st0" d="M455.3,103.3c0-16.2,8.1-30.1,26.6-30.1c18.5,0,26.6,13.9,26.6,30.1v3.5l-1.2,1.2h-38.1l-1.2,1.2
			c0,2.3,1.2,13.9,15,13.9c4.6,0,9.2-1.2,11.6-6.9l1.2-1.2h9.2l1.2,1.2c-1.2,9.2-9.2,17.3-23.1,17.3
			C464.5,133.4,455.3,120.7,455.3,103.3z M495.7,97.6c0-3.5-1.2-13.9-13.9-13.9c-12.7,0-13.9,10.4-13.9,13.9l1.2,1.2h25.4
			L495.7,97.6z"/>
	</g>
	<path class="st1" d="M274.4,147.1c-6.7-1.9-11.5-4.9-14.3-9c-2.8-4.1-4.2-9.1-4.2-15v-10.6c0-3.9-0.9-6.9-2.7-9
		c-1.8-2.2-4.5-3.2-8.1-3.2v-7.6c3.7,0,6.4-1.1,8.1-3.2c1.8-2.1,2.7-5.1,2.7-9V69.7c0-5.9,1.4-10.9,4.2-15c2.8-4.1,7.6-7.1,14.3-9
		l2.1,6c-3.8,1.2-6.5,3.4-8.1,6.5c-1.6,3.1-2.4,7-2.4,11.5v10.7c0,3.6-0.7,6.8-2.2,9.6c-1.5,2.8-3.7,4.9-6.6,6.5
		c2.9,1.6,5.1,3.8,6.6,6.5c1.5,2.8,2.2,5.9,2.2,9.5V123c0,4.6,0.8,8.4,2.4,11.5c1.6,3.1,4.3,5.2,8.1,6.5L274.4,147.1z"/>
	<path class="st1" d="M512.2,141c3.8-1.2,6.4-3.4,8.1-6.5s2.4-6.9,2.4-11.5v-10.6c0-3.7,0.8-6.9,2.3-9.7c1.6-2.8,3.9-4.9,7.2-6.4
		c-3.2-1.4-5.6-3.5-7.2-6.3c-1.6-2.8-2.3-6-2.3-9.8V69.7c0-4.6-0.8-8.4-2.4-11.5s-4.3-5.3-8.1-6.5l2.1-6c6.7,1.9,11.5,4.9,14.3,9
		c2.8,4.1,4.3,9.1,4.3,15v10.7c0,3.9,0.9,6.9,2.6,9c1.7,2.1,4.5,3.2,8.2,3.2v7.6c-3.7,0-6.5,1.1-8.2,3.2c-1.7,2.2-2.6,5.2-2.6,9V123
		c0,5.9-1.4,10.9-4.3,15c-2.8,4.1-7.6,7.2-14.3,9L512.2,141z"/>
	<g>
		<g>
			<path class="st1" d="M129.7,138.4c-22.2,0-40.2-18-40.2-40.2c0-22.2,18-40.2,40.2-40.2c14.5,0,27.3,7.8,34.4,19.3h21
				C176.6,55,155,39.1,129.7,39.1c-12.9,0-24.8,4.2-34.5,11.2L44.9,0l-5.2,5.2C39.1,5.6,38.5,6,38,6.5c-1.3,1.3-2.5,2.7-3.7,4.1
				l-2.8,2.8l0.1,0.1C11.2,37.1,0,66.8,0,98.2c0,34.6,13.5,67.2,38,91.7c1.8,1.8,4.3,2.8,6.7,2.8c2.4,0,4.9-0.9,6.7-2.8
				c3.7-3.7,3.7-9.7,0-13.4C30.5,155.6,19,127.8,19,98.2c0-26.4,9.2-51.3,26.1-71.3l12,12C43.8,55.2,35.9,75.8,35.9,98.2
				c0,51.8,42.1,93.9,93.9,93.9c5.2,0,9.5-4.2,9.5-9.5c0-5.2-4.2-9.5-9.5-9.5c-41.3,0-74.9-33.6-74.9-74.9
				c0-17.2,5.9-33.1,15.8-45.7l11.2,11.2c-7,9.7-11.2,21.6-11.2,34.5c0,32.6,26.5,59.2,59.2,59.2c25.3,0,46.9-15.9,55.4-38.3h-21
				C157,130.7,144.2,138.4,129.7,138.4z"/>
			<g>
				<path class="st0" d="M223.6,98.2c0-51.8-42.1-93.9-93.9-93.9c-20.8,0-40,6.8-55.5,18.2l13.6,13.6c12-8.1,26.4-12.9,41.9-12.9
					c38.1,0,69.6,28.6,74.3,65.4h-52.2c-3.7-8.6-12.2-14.6-22.1-14.6c-13.3,0-24.1,10.8-24.1,24.1c0,13.3,10.8,24.1,24.1,24.1
					c9.9,0,18.5-6,22.1-14.6h71.7V98.2z"/>
			</g>
		</g>
	</g>
</g>
</svg>
