<svg xmlns="http://www.w3.org/2000/svg" xmlns:xlink="http://www.w3.org/1999/xlink" viewBox="0 0 688.87 95.77"><defs><linearGradient id="linear-gradient" y1="-126.12" x2="688.87" y2="-126.12" gradientTransform="translate(0 174)" gradientUnits="userSpaceOnUse"><stop offset="0" stop-color="#0944a5"/><stop offset="1" stop-color="#3192fc"/></linearGradient></defs><title>leadgate-color</title><g id="Layer_2" data-name="Layer 2"><g id="Layer_1-2" data-name="Layer 1"><path d="M57.46,65.35l-3,27.83H0L9.58,2.59h33L36,65.35Z" style="fill:url(#linear-gradient)"/><path d="M104.83,26.27l-1,10.74h28.34L129.67,59.4H101.33l-1,10.09h28.34l-2.46,23.69H64.84L74.41,2.59h61.35l-2.59,23.68Z" style="fill:url(#linear-gradient)"/><path d="M202.79,93.18l-1.68-10h-28.6l-3.76,10H132.91l44-90.59h37l26,90.59ZM192.44,30.93,181.05,60.57h16.18Z" style="fill:url(#linear-gradient)"/><path d="M509.89,93.18l-1.68-10h-28.6l-3.76,10H440L484,2.59h37l26,90.59ZM499.54,30.93,488.15,60.57h16.18Z" style="fill:url(#linear-gradient)"/><path d="M564.5,30.41H547.81l3-27.82h66.39l-3,27.82H597.5l-6.6,62.77h-33Z" style="fill:url(#linear-gradient)"/><path d="M657.94,26.27l-1,10.74h28.34L682.79,59.4H654.45l-1,10.09h28.34L679.3,93.18H618l9.58-90.59h61.34l-2.59,23.68Z" style="fill:url(#linear-gradient)"/><path d="M395.75,40.51l-2.2,20.06h13.71a11.36,11.36,0,0,1-4.33,6.21c-2.2,1.64-5.16,2.46-8.86,2.46q-7.51,0-11.07-4.73t-3.56-13.39a47.2,47.2,0,0,1,.65-7.31,25.52,25.52,0,0,1,2.46-7.64,16,16,0,0,1,5.24-6,15.13,15.13,0,0,1,8.86-2.4,14.32,14.32,0,0,1,5.12.78,9.28,9.28,0,0,1,3.23,2,7.77,7.77,0,0,1,1.81,2.71,10.84,10.84,0,0,1,.72,2.92h37.14a32.36,32.36,0,0,0-2.78-13.79,33.66,33.66,0,0,0-8.55-11.51,42.06,42.06,0,0,0-13.91-8,55.54,55.54,0,0,0-18.9-3,54.32,54.32,0,0,0-32.89,10L350.71,74.62a36.4,36.4,0,0,0,6.41,8.85,39.74,39.74,0,0,0,14.1,9A54.25,54.25,0,0,0,391,95.77a62.26,62.26,0,0,0,17.92-2.46,48.13,48.13,0,0,0,14.57-7.06,43,43,0,0,0,10.67-11.13,45.2,45.2,0,0,0,6.27-14.55h8l2.2-20.06Z" style="fill:url(#linear-gradient)"/><path d="M335.12,21.52a38,38,0,0,0-5-6.51A39.56,39.56,0,0,0,316.68,6a47.61,47.61,0,0,0-18.51-3.36h-40.9L247.7,93.18h40.89A55.76,55.76,0,0,0,310.53,89a55.68,55.68,0,0,0,8-4.22ZM306,53.45a19.42,19.42,0,0,1-3.88,6.21,19.18,19.18,0,0,1-6,4.34,18,18,0,0,1-7.64,1.61h-4.91l3.75-35.46h4.92a15,15,0,0,1,6.4,1.3,14.28,14.28,0,0,1,4.73,3.49,15.7,15.7,0,0,1,3,5.05,17.69,17.69,0,0,1,1,6.08A20.31,20.31,0,0,1,306,53.45Z" style="fill:url(#linear-gradient)"/></g></g></svg>