<svg xmlns="http://www.w3.org/2000/svg" viewBox="0 0 183.14 33.25"><title>rigado-logo</title><g id="Layer_2" data-name="Layer 2"><g id="Layer_1-2" data-name="Layer 1"><path d="M39.54,7.43H55.06c3.18,0,4.59.27,5.61,1.14s1.54,2.37,1.54,4.8c0,3.35-.81,4.67-3.1,5.18,2.24.38,2.91,1.33,2.86,4.05v2.84H56.41V23.2c0-1.95-.57-2.35-3-2.3H45v4.54H39.54Zm14,9.07c2.64,0,3.15-.32,3.15-2.1,0-1.16-.1-1.65-.45-2s-.87-.51-2.51-.51H45V16.5ZM66.2,7.43h5.48v18H66.2Zm27.38,6.1c0-1.4-.62-1.94-2.26-2H89.94l-1.94,0-2,0c-2.62,0-2.62,0-3.27.16a1.84,1.84,0,0,0-1.56,1.89A32.44,32.44,0,0,0,81,16.88c0,2.43.25,3.4,1,3.91a5,5,0,0,0,2.81.6c.59,0,.59,0,4,0,3.59,0,4.26-.17,4.72-1.35a4.22,4.22,0,0,0,.08-1v-.44H86.67V15.29H99v2.48c0,3-.11,4-.46,5-.62,1.67-1.89,2.48-4.16,2.72-.57.06-2.21.08-7.53.08A37.18,37.18,0,0,1,80,25.25a4.66,4.66,0,0,1-3.75-2.76c-.54-1.21-.67-2.48-.67-5.83,0-3.86.21-5.39.91-6.66s2.08-2.14,4.4-2.46A62.69,62.69,0,0,1,87.7,7.3c4.91,0,6.48.08,7.61.35,2.78.7,3.67,2.1,3.65,5.88Zm17.34-6.1h7.35l9.85,18h-6l-1.79-3.21h-11.6L107,25.44H100.8Zm7.51,11-3.89-7.18-3.83,7.18ZM131,7.43H146.5c3.8,0,5.58.43,6.83,1.68,1,1,1.4,2.1,1.59,4.4.05.83.11,2.07.11,2.94a34.61,34.61,0,0,1-.27,4.51A4.84,4.84,0,0,1,151,25.17a16.82,16.82,0,0,1-3.75.27H131Zm14.66,13.72a5.29,5.29,0,0,0,2.24-.22c1.32-.41,1.67-1.35,1.67-4.45,0-3.78-.65-4.57-3.81-4.57h-9.28v9.24ZM178.47,7.51c2.78.52,4.13,2,4.51,4.84a36.51,36.51,0,0,1,.16,4.37c0,4.34-.46,6.1-2,7.37-1.08.92-2.6,1.35-5.21,1.46-1,.05-3.38.08-5.13.08a49.52,49.52,0,0,1-7.56-.3c-2-.35-3.16-1.11-3.83-2.43s-.87-2.65-.87-6.59a17.08,17.08,0,0,1,.38-5,4.61,4.61,0,0,1,3.59-3.54c1.51-.43,3.16-.54,7.91-.54A54.86,54.86,0,0,1,178.47,7.51ZM165,12.29c-.73.57-.94,1.46-.94,4.05s.21,3.62.89,4.18,1.62.71,5.75.71c4.72,0,5.69-.17,6.31-1,.52-.65.65-1.57.65-4,0-4.53-.08-4.59-6.83-4.59C166.84,11.64,165.73,11.78,165,12.29Z" style="fill:#1f5b8d"/><path d="M3,27.32a1.71,1.71,0,0,1,.47,1.17,1.75,1.75,0,1,1-3-1.17V6.63A1.28,1.28,0,0,1,3,6.63ZM25.44,25.4a1.74,1.74,0,1,0,1.64-2.29,1.83,1.83,0,0,0-.4.05l-8.06-4.51,9.9-5.8a1.33,1.33,0,0,0,.63-1.1,1.27,1.27,0,0,0-.62-1.1L18.27,4.43l1.66-.93,3,1.71A1.74,1.74,0,1,0,24.62,3a1.58,1.58,0,0,0-.38,0L20.57.92a1.29,1.29,0,0,0-1.26,0L7.22,7.66V5.77l4.15-2.33A1.74,1.74,0,1,0,10.12,1.2L5.31,3.91A1.27,1.27,0,0,0,4.65,5V32a1.29,1.29,0,0,0,2.57,0V25l8.16,4.4a1.2,1.2,0,0,0,.6.16,1.28,1.28,0,0,0,1.13-.68,1.26,1.26,0,0,0-.52-1.73L7.22,22V15.45l9-5a1.28,1.28,0,0,0,.5-1.74A1.29,1.29,0,0,0,15,8.17L7.22,12.51V10.59L15.7,5.87l5.53,3.35L9.38,16.13A1.28,1.28,0,0,0,10,18.52a1.24,1.24,0,0,0,.64-.18l13.05-7.61,1.65,1L11.19,20.05a1.27,1.27,0,0,0,0,2.22l14.23,7.92a1.75,1.75,0,1,0,1.24-2.25L14.42,21.12l1.64-1Z" style="fill:#bcc1c6"/></g></g></svg>