<svg xmlns="http://www.w3.org/2000/svg" viewBox="0 0 1315.85 306.42"><title>Asset 1</title><g id="Layer_2" data-name="Layer 2"><g id="Layer_1-2" data-name="Layer 1"><path d="M213.44,225.17V205.93H326.66q16.27,0,16.28-12V177.44q0-12-16.28-12H250.07a66.91,66.91,0,0,1-18.87-2.31,34.37,34.37,0,0,1-12.67-6.48,24.33,24.33,0,0,1-7.13-9.9A35,35,0,0,1,209.18,134v-7.59a35.09,35.09,0,0,1,2.22-12.76,24.46,24.46,0,0,1,7.13-9.9,34.51,34.51,0,0,1,12.67-6.47,66.88,66.88,0,0,1,18.87-2.32H360.33v19.24H250.07q-16.29,0-16.28,12v8q0,12,16.28,12h76.59a66.91,66.91,0,0,1,18.87,2.31A34.6,34.6,0,0,1,358.2,155a24.34,24.34,0,0,1,7.12,9.89,35.14,35.14,0,0,1,2.22,12.77v16.09a35.1,35.1,0,0,1-2.22,12.77,24.44,24.44,0,0,1-7.12,9.9,34.59,34.59,0,0,1-12.67,6.47,66.54,66.54,0,0,1-18.87,2.31Z" style="fill:#1b75bc"/><path d="M532,225.17,464.85,120.28,396.59,225.17H369.21L455.79,94.93h17.94l86,130.24Z" style="fill:#1b75bc"/><path d="M610.08,225.17,523.5,94.93h27.93l68.08,104.9,67.34-104.9h27.2L628,225.17Z" style="fill:#1b75bc"/><path d="M727,225.17V94.93h24.6V225.17Z" style="fill:#1b75bc"/><path d="M848.17,225.17V172.26L764.55,94.93H796l64.38,59.57,64.38-59.57h31.08l-83.06,77.33v52.91Z" style="fill:#1b75bc"/><path d="M1128.26,225.17,989.33,123.79V225.17H967.87V94.93h21.27l129.69,96.76V94.93h21.46V225.17Z" style="fill:#1b75bc"/><path d="M1224.83,225.17v-111h-68.26V94.93h159.28v19.24h-66.41v111Z" style="fill:#1b75bc"/><path d="M186.24,208.42c-2.44-17.17-10.83-34.65-26.39-55-7.8-10.22-16.5-20-24.91-29.53C123.55,111,112.79,98.87,105.29,87,98.25,75.85,95,66.14,95.18,57.3,96.29,14.65,161.64.14,162.3,0h-19c-5,0-17.77,0-33.07,0h-9.82C66.87.07,26.91.14,26.91.14l-.73.74C25.1,2-.27,28.12,0,77.61A151.37,151.37,0,0,0,1.53,98C4,115.17,12.35,132.65,27.91,153c7.81,10.21,16.51,20,24.92,29.53,11.39,12.85,22.15,25,29.65,36.88,7,11.14,10.34,20.85,10.11,29.69-1.11,42.65-66.46,57.16-67.12,57.3h19c5,0,17.76,0,33.07,0h9.82c33.55,0,73.51-.11,73.51-.11l.73-.74c1.08-1.09,26.45-27.24,26.18-76.73A153,153,0,0,0,186.24,208.42Z" style="fill:#1b75bc"/></g></g></svg>