<svg xmlns="http://www.w3.org/2000/svg" viewBox="0 0 270.8 72.2"><title>usdrs</title><g id="Layer_2" data-name="Layer 2"><g id="Layer_1-2" data-name="Layer 1"><g id="Layer_2-2" data-name="Layer 2"><g id="Layer_1-2-2" data-name="Layer 1-2"><path d="M2.9,29V27.2a2.66,2.66,0,0,0-.2-1,.78.78,0,0,0-.4-.4,2.16,2.16,0,0,0-1-.2L0,25.5V24.2a23.22,23.22,0,0,1,2.5.1H8.4a17.52,17.52,0,0,0,2.4-.1v1.3l-1.3.1a2.16,2.16,0,0,0-1,.2.78.78,0,0,0-.4.4,2.16,2.16,0,0,0-.2,1V37.6c0,1.2,0,2.3.1,3.3a6.08,6.08,0,0,0,.7,2.5A3.86,3.86,0,0,0,10.6,45a8.26,8.26,0,0,0,3.4.6,8.37,8.37,0,0,0,3.5-.6,3.56,3.56,0,0,0,1.9-1.7,6.66,6.66,0,0,0,.9-2.6,32.14,32.14,0,0,0,.2-3.4V27.2a2.66,2.66,0,0,0-.2-1,.78.78,0,0,0-.4-.4,2.16,2.16,0,0,0-1-.2l-1.3-.1V24.2a13.34,13.34,0,0,1,2,.1,13.35,13.35,0,0,0,2,0h2a13.34,13.34,0,0,0,2-.1v1.3l-1.3.1a2.16,2.16,0,0,0-1,.2.78.78,0,0,0-.4.4,2.16,2.16,0,0,0-.2,1V39.1c0,3.2-.8,5.6-2.4,7.1s-4,2.3-7.2,2.3A17.8,17.8,0,0,1,8.8,48a8.87,8.87,0,0,1-3.1-1.4,6.38,6.38,0,0,1-1.9-2.1,6,6,0,0,1-.6-2.7V29Z" style="fill:#668da7"/><path d="M59.4,40.8l.3,3.1a3.4,3.4,0,0,0,1,1.1c.4.3.9.6,1.4.9a7.43,7.43,0,0,0,1.6.5,7.52,7.52,0,0,0,1.5.2,7.11,7.11,0,0,0,2.1-.3,5.56,5.56,0,0,0,1.7-.9A5.19,5.19,0,0,0,70.2,44a4.17,4.17,0,0,0,.4-2,3.09,3.09,0,0,0-.7-2,4.29,4.29,0,0,0-2.2-1.3l-4.9-1.5a8,8,0,0,1-3.6-2.1,5.24,5.24,0,0,1-1.4-3.8,7.28,7.28,0,0,1,.7-3.5,5.91,5.91,0,0,1,2-2.4,7.06,7.06,0,0,1,2.9-1.3,13.29,13.29,0,0,1,3.5-.4,18.25,18.25,0,0,1,3.3.3,16.91,16.91,0,0,1,3.2.9l.2.4a9.69,9.69,0,0,0-.4,2.2,24.37,24.37,0,0,0-.1,2.7H71.7l-.2-2.9a5.54,5.54,0,0,0-2.1-1.4,5.82,5.82,0,0,0-2.5-.5,6.8,6.8,0,0,0-2.1.3,3.84,3.84,0,0,0-1.5.9,3.89,3.89,0,0,0-.9,1.3,4.17,4.17,0,0,0-.3,1.6,2.51,2.51,0,0,0,.9,2,6.73,6.73,0,0,0,2.8,1.4l4,1A7.47,7.47,0,0,1,73.6,36,5.65,5.65,0,0,1,75,39.9a7.75,7.75,0,0,1-.9,3.8,7.19,7.19,0,0,1-2.3,2.6,8.48,8.48,0,0,1-3.2,1.5,15.72,15.72,0,0,1-3.8.5,14.83,14.83,0,0,1-3.7-.4,20.66,20.66,0,0,1-3.5-1.2c.2-1.1.3-2.1.4-3.1s.1-2,.1-3h1.3Z" style="fill:#668da7"/><path d="M143.6,28.2a7.31,7.31,0,0,0-3.4-1.7,19,19,0,0,0-5.1-.6h-1c-.3,0-.7.1-1.1.1V45.8c.5.1,1,.1,1.5.2H136c3.5,0,6-.9,7.6-2.6s2.4-4.3,2.4-7.8a14.26,14.26,0,0,0-.6-4.4A5.85,5.85,0,0,0,143.6,28.2Z" style="fill:#668da7"/><path d="M142.6,0,102.1,40.5l31.7,31.7,40.5-40.5ZM147,44.6a14.11,14.11,0,0,1-4.5,2.5,15.65,15.65,0,0,1-5.3.8h-.3c-.9,0-1.7-.1-2.6-.1h-5.2c-.9,0-1.8,0-2.7.1v-.8l1.1-.6a1.15,1.15,0,0,0,.5-.7,4.37,4.37,0,0,0,.1-1.3V27.2a2.66,2.66,0,0,0-.2-1,.78.78,0,0,0-.4-.4,2.16,2.16,0,0,0-1-.2l-1.3-.1V24.2a29.19,29.19,0,0,1,3.1.1h11.3a19.12,19.12,0,0,1,5,.6,9.39,9.39,0,0,1,3.7,1.9,8.47,8.47,0,0,1,2.3,3.3,14.43,14.43,0,0,1,.8,5,12,12,0,0,1-1.2,5.5A13.78,13.78,0,0,1,147,44.6Z" style="fill:#668da7"/><path d="M197.6,29V27.2a2.16,2.16,0,0,0-.2-1,.78.78,0,0,0-.4-.4,2.16,2.16,0,0,0-1-.2l-1.3-.1V24.2a29.19,29.19,0,0,1,3.1.1,24.32,24.32,0,0,0,2.7,0H204c1.1,0,2.3,0,3.5-.1h.3a17.52,17.52,0,0,1,2.4.2,6.39,6.39,0,0,1,2.1.8,3.62,3.62,0,0,1,1.4,1.6,4.81,4.81,0,0,1,.5,2.5,4.74,4.74,0,0,1-.4,2.1,6.12,6.12,0,0,1-1.1,1.7,5.54,5.54,0,0,1-1.7,1.3c-.7.3-1.3.7-2,1l6.3,9.5a1.21,1.21,0,0,0,.5.5,2.62,2.62,0,0,0,.6.5l.6.3c.2.1.5.1.8.2v1.4c-.6,0-1.1-.1-1.7-.1h-3.3a9.49,9.49,0,0,0-1.6.1l-7.8-12.1.3-.6h.6a4.45,4.45,0,0,0,2-.4,5.32,5.32,0,0,0,1.6-1,4.25,4.25,0,0,0,1-1.6,6.53,6.53,0,0,0,.4-2,4.17,4.17,0,0,0-1.3-3.3,5.27,5.27,0,0,0-3.4-1.1,4.83,4.83,0,0,0-1.2.1,1.5,1.5,0,0,0-1,.3V44.8a2.16,2.16,0,0,0,.2,1c.1.1.2.3.4.3a5.71,5.71,0,0,0,1,.2l1.3.1v1.4c-.7,0-1.5-.1-2.4-.1h-6a17.52,17.52,0,0,0-2.4.1V46.4l1.3-.1a2.16,2.16,0,0,0,1-.2,1.31,1.31,0,0,0,.4-.3,2.16,2.16,0,0,0,.2-1V29Z" style="fill:#668da7"/><path d="M255.2,40.8l.3,3.1a3.4,3.4,0,0,0,1,1.1,10.76,10.76,0,0,0,1.4.9,7.43,7.43,0,0,0,1.6.5,7.52,7.52,0,0,0,1.5.2,7.11,7.11,0,0,0,2.1-.3,5.56,5.56,0,0,0,1.7-.9A5.19,5.19,0,0,0,266,44a4.17,4.17,0,0,0,.4-2,3.09,3.09,0,0,0-.7-2,4.29,4.29,0,0,0-2.2-1.3l-4.9-1.5a8,8,0,0,1-3.6-2.1,5,5,0,0,1-1.4-3.8,7.28,7.28,0,0,1,.7-3.5,5.91,5.91,0,0,1,2-2.4,7.06,7.06,0,0,1,2.9-1.3,13.29,13.29,0,0,1,3.5-.4,18.25,18.25,0,0,1,3.3.3,16.91,16.91,0,0,1,3.2.9l.2.4a9.69,9.69,0,0,0-.4,2.2,24.37,24.37,0,0,0-.1,2.7h-1.4l-.2-2.9a5.54,5.54,0,0,0-2.1-1.4,5.82,5.82,0,0,0-2.5-.5,6.8,6.8,0,0,0-2.1.3,3.84,3.84,0,0,0-1.5.9,3.89,3.89,0,0,0-.9,1.3,4.17,4.17,0,0,0-.3,1.6,2.51,2.51,0,0,0,.9,2,6.73,6.73,0,0,0,2.8,1.4l4,1a7.47,7.47,0,0,1,3.8,2.1,5.65,5.65,0,0,1,1.4,3.9,7.75,7.75,0,0,1-.9,3.8,7.19,7.19,0,0,1-2.3,2.6,8.48,8.48,0,0,1-3.2,1.5,15.72,15.72,0,0,1-3.8.5,14.83,14.83,0,0,1-3.7-.4,20.66,20.66,0,0,1-3.5-1.2c.2-1.1.3-2.1.4-3.1s.1-2,.1-3h1.3Z" style="fill:#668da7"/></g></g></g></g></svg>