<?xml version="1.0" encoding="utf-8"?>
<!-- Generator: Adobe Illustrator 23.0.1, SVG Export Plug-In . SVG Version: 6.00 Build 0)  -->
<svg version="1.1" id="Layer_1" xmlns="http://www.w3.org/2000/svg" xmlns:xlink="http://www.w3.org/1999/xlink" x="0px" y="0px"
	 viewBox="0 0 139.2 38.3" style="enable-background:new 0 0 139.2 38.3;" xml:space="preserve">
<style type="text/css">
	.st0{fill:#FFFFFF;}
</style>
<title>4dv</title>
<g>
	<g id="Layer_1-2">
		<path class="st0" d="M83.1,25c0,0.5-0.1,1.1-0.2,1.6c-0.1,0.4-0.3,0.6-0.6,0.6h-2.4v5c0,0.1,0,0.3-0.1,0.4
			c-0.1,0.1-0.2,0.2-0.4,0.3c-0.2,0.1-0.5,0.1-0.8,0.2s-0.8,0.1-1.3,0.1c-0.4,0-0.9,0-1.3-0.1c-0.3,0-0.6-0.1-0.8-0.2
			c-0.2-0.1-0.3-0.2-0.4-0.3c-0.2,0-0.3-0.2-0.3-0.4v-5H64c-0.2,0-0.4,0-0.5-0.1c-0.2,0-0.3-0.2-0.4-0.3c-0.1-0.2-0.2-0.5-0.2-0.8
			c0-0.3-0.1-0.8-0.1-1.3v-1.2c0-0.3,0.1-0.6,0.1-0.9c0-0.3,0.1-0.5,0.2-0.8c0.1-0.3,0.2-0.5,0.3-0.8l8.5-15
			c0.1-0.1,0.2-0.2,0.4-0.3c0.2-0.1,0.5-0.2,0.7-0.2c0.4-0.1,0.8-0.1,1.2-0.1h1.7c0.6,0,1.2,0,1.8,0.1c0.4,0,0.8,0.1,1.2,0.2
			c0.2,0.1,0.5,0.2,0.7,0.3c0.1,0.1,0.2,0.2,0.2,0.4v16.5h2.4c0.2,0,0.4,0.2,0.6,0.5C83.1,23.9,83.2,24.4,83.1,25z M74.5,10.2
			L74.5,10.2l-7.3,12.6h7.3V10.2z"/>
		<path class="st0" d="M111.5,18.8c0.1,2.2-0.3,4.4-1,6.5c-0.6,1.6-1.6,3.2-2.8,4.4c-1.3,1.2-2.8,2-4.5,2.5
			c-2.1,0.6-4.2,0.8-6.3,0.8h-6.6c-0.4,0-0.9-0.1-1.2-0.4c-0.3-0.3-0.5-0.8-0.5-1.3V7.2c0-0.5,0.1-1,0.5-1.3
			c0.4-0.3,0.8-0.4,1.2-0.4h7c2.1,0,4.2,0.3,6.2,0.9c1.6,0.5,3.1,1.4,4.3,2.5c1.2,1.2,2.2,2.6,2.7,4.2
			C111.2,14.9,111.6,16.9,111.5,18.8z M105.8,19c0-1.2-0.2-2.4-0.5-3.6c-0.3-1.1-0.8-2.1-1.5-2.9c-0.7-0.8-1.6-1.5-2.6-1.9
			c-1.3-0.5-2.7-0.8-4.1-0.7h-2.8v18.7h2.9c1.3,0,2.6-0.2,3.9-0.6c1-0.4,1.9-1,2.6-1.8c0.7-0.9,1.3-1.9,1.6-3
			C105.6,21.8,105.8,20.4,105.8,19z"/>
		<path class="st0" d="M130.9,31.9l-0.3,0.6c-0.2,0.2-0.4,0.3-0.6,0.3c-0.3,0.1-0.7,0.1-1,0.1h-3.2c-0.3,0-0.7,0-1-0.1
			c-0.3,0-0.5-0.1-0.7-0.1s-0.3-0.1-0.4-0.2l-0.3-0.3c-0.1-0.1-0.1-0.3-0.2-0.5L115,7.4c-0.2-0.4-0.3-0.8-0.3-1.2
			c0-0.3,0-0.5,0.2-0.7c0.3-0.1,0.6-0.2,0.9-0.3c0.4,0,1-0.1,1.8-0.1h1.5c0.3,0,0.5,0,0.8,0.1c0.2,0.1,0.3,0.2,0.4,0.3
			c0.1,0.1,0.2,0.3,0.2,0.5l6.7,21.2l0,0l6.6-21.1c0.1-0.2,0.1-0.4,0.2-0.6s0.2-0.3,0.4-0.3c0.3-0.1,0.6-0.2,0.9-0.2h1.6
			c0.5,0,1,0,1.5,0.1c0.4,0,0.6,0.1,0.7,0.3c0.1,0.2,0.2,0.5,0.1,0.7c-0.1,0.4-0.2,0.8-0.3,1.2L130.9,31.9z"/>
		<path class="st0" d="M39.8,38.3H19.1c-10.6,0-19.2-8.5-19.2-19.1S8.4,0,19,0c10.6,0,19.2,8.5,19.2,19.1v5c0,0.4-0.4,0.8-0.8,0.8
			c-0.4,0-0.8-0.4-0.8-0.8v-5C36.5,9.4,28.7,1.6,19,1.7S1.5,9.6,1.6,19.3c0.1,9.6,7.9,17.4,17.5,17.4h20.7c0.4,0,0.8,0.4,0.8,0.8
			C40.6,37.9,40.3,38.3,39.8,38.3C39.8,38.3,39.8,38.3,39.8,38.3z"/>
		<path class="st0" d="M48.6,35.9H19.1c-9.2,0-16.7-7.5-16.7-16.7C2.4,10,9.9,2.5,19.1,2.5c9.2,0,16.7,7.5,16.7,16.7c0,0,0,0,0,0v5
			c0,0.4-0.4,0.8-0.8,0.8s-0.8-0.4-0.8-0.8c0,0,0,0,0,0v-5c0-8.3-6.8-15.1-15.1-15.1S4,10.9,4,19.2s6.8,15.1,15.1,15.1h0h29.5
			c0.4,0,0.8,0.4,0.8,0.8C49.4,35.5,49.1,35.9,48.6,35.9C48.6,35.9,48.6,35.9,48.6,35.9z"/>
		<path class="st0" d="M44.3,33.4H19.1c-7.8,0-14.2-6.4-14.2-14.2C4.9,11.4,11.3,5,19.1,5c7.8,0,14.2,6.4,14.2,14.2l0,0v5
			c0,0.4-0.4,0.8-0.8,0.8c-0.4,0-0.8-0.4-0.8-0.8v-5c0-7-5.6-12.6-12.6-12.6S6.5,12.2,6.5,19.2s5.6,12.6,12.6,12.6c0,0,0,0,0,0h25.1
			c0.4,0,0.8,0.4,0.8,0.8C45,33,44.8,33.3,44.3,33.4C44.4,33.4,44.3,33.4,44.3,33.4z"/>
		<path class="st0" d="M48.6,30.9H19.1c-6.5,0-11.7-5.2-11.7-11.7c0-6.5,5.2-11.7,11.7-11.7c6.5,0,11.7,5.2,11.7,11.7v0v5
			c0,0.4-0.4,0.8-0.8,0.8c-0.4,0-0.8-0.4-0.8-0.8v-5c0-5.6-4.5-10.1-10.1-10.1S9,13.6,9,19.2s4.5,10.1,10.1,10.1c0,0,0,0,0,0h29.5
			c0.4,0,0.8,0.4,0.8,0.8C49.4,30.5,49.1,30.9,48.6,30.9C48.6,30.9,48.6,30.9,48.6,30.9z"/>
		<path class="st0" d="M41.4,28.5H19.1c-5.1,0-9.3-4.2-9.3-9.3c0-5.1,4.2-9.3,9.3-9.3c5.1,0,9.3,4.2,9.3,9.3l0,0v5
			c0,0.4-0.4,0.8-0.8,0.8c-0.4,0-0.8-0.4-0.8-0.8v-5c0-4.3-3.4-7.7-7.7-7.7c-4.2,0-7.6,3.4-7.6,7.6c0,0,0,0,0,0.1
			c0,4.3,3.4,7.7,7.7,7.7h22.2c0.4,0,0.8,0.4,0.8,0.8C42.2,28.1,41.8,28.5,41.4,28.5z"/>
	</g>
</g>
</svg>
