<?xml version="1.0" encoding="utf-8"?>
<!-- Generator: Adobe Illustrator 19.2.0, SVG Export Plug-In . SVG Version: 6.00 Build 0)  -->
<svg version="1.1" xmlns="http://www.w3.org/2000/svg" xmlns:xlink="http://www.w3.org/1999/xlink" x="0px" y="0px"
	 viewBox="0 0 853 587" style="enable-background:new 0 0 853 587;" xml:space="preserve">
<style type="text/css">
	.st0{fill:url(#SVGID_1_);}
	.st1{fill:#FFFFFF;}
</style>
<g id="Layer_1">
	<linearGradient id="SVGID_1_" gradientUnits="userSpaceOnUse" x1="426.5" y1="0.2653" x2="426.5" y2="586.7347">
		<stop  offset="0" style="stop-color:#AB0000"/>
		<stop  offset="1" style="stop-color:#8B0000"/>
	</linearGradient>
	<rect y="0.3" class="st0" width="853" height="586.5"/>
	<g>
		<path class="st1" d="M139.6,327.2V148.3h76.1c16.3,0,30.7,2.4,43.2,7.1c12.4,4.7,22.8,11.1,31.2,19.2s14.7,17.5,18.9,28.4
			c4.3,10.8,6.4,22.4,6.4,34.7c0,13.6-2.4,25.9-7.1,36.9c-4.7,11-11.5,20.4-20.2,28.2c-8.7,7.8-19.2,13.9-31.5,18.1
			c-12.3,4.3-25.9,6.4-41,6.4H139.6z M260.3,237.5c0-6.9-1-13.2-3.1-18.9c-2-5.7-5-10.6-8.8-14.6c-3.8-4-8.5-7.2-14.1-9.4
			c-5.6-2.3-11.8-3.4-18.7-3.4H194v93.3h21.7c7.1,0,13.4-1.2,18.9-3.5c5.6-2.4,10.3-5.6,14.1-9.8c3.8-4.2,6.7-9.2,8.6-14.9
			C259.3,250.4,260.3,244.2,260.3,237.5z"/>
		<path class="st1" d="M339.5,327.2V148.3h76.1c16.3,0,30.7,2.4,43.2,7.1c12.4,4.7,22.8,11.1,31.2,19.2s14.7,17.5,18.9,28.4
			c4.3,10.8,6.4,22.4,6.4,34.7c0,13.6-2.4,25.9-7.1,36.9c-4.7,11-11.5,20.4-20.2,28.2c-8.7,7.8-19.2,13.9-31.5,18.1
			c-12.3,4.3-25.9,6.4-41,6.4H339.5z M460.2,237.5c0-6.9-1-13.2-3.1-18.9c-2-5.7-5-10.6-8.8-14.6c-3.8-4-8.5-7.2-14.1-9.4
			c-5.6-2.3-11.8-3.4-18.7-3.4h-21.7v93.3h21.7c7.1,0,13.4-1.2,18.9-3.5c5.6-2.4,10.3-5.6,14.1-9.8s6.7-9.2,8.6-14.9
			C459.2,250.4,460.2,244.2,460.2,237.5z"/>
		<path class="st1" d="M593.7,239.3v88h-54.3V148.3h42.4l79.4,91v-91h54.3v178.9h-43.2L593.7,239.3z"/>
	</g>
	<g>
		<path class="st1" d="M197.7,384.8c-0.7-0.5-1.7-1.2-3.2-2c-1.5-0.8-3.2-1.6-5.3-2.3c-2.1-0.7-4.3-1.4-6.9-1.9
			c-2.5-0.5-5.2-0.8-8.1-0.8c-4.1,0-7.3,0.6-9.5,1.7c-2.2,1.2-3.4,2.9-3.4,5.1c0,1.4,0.5,2.5,1.4,3.4c0.9,0.9,2.2,1.7,3.9,2.4
			c1.7,0.7,3.7,1.3,6.1,1.9c2.4,0.6,5.1,1.1,8.2,1.7c4.2,0.9,8,1.9,11.4,3c3.4,1.1,6.3,2.5,8.7,4.1c2.4,1.6,4.2,3.6,5.5,6
			s1.9,5.2,1.9,8.5c0,4.1-0.9,7.5-2.6,10.2c-1.8,2.8-4.1,5-7.1,6.8c-3,1.8-6.4,3-10.2,3.8c-3.9,0.8-7.9,1.2-12.2,1.2
			c-6.5,0-12.9-0.8-19.2-2.5c-6.3-1.6-12-3.9-17.1-6.7l7.9-13.6c1,0.9,2.4,1.8,4.2,2.8c1.9,1,4.1,2,6.7,2.8c2.6,0.9,5.4,1.6,8.4,2.1
			c3.1,0.6,6.2,0.8,9.4,0.8c8.9,0,13.3-2.2,13.3-6.5c0-1.3-0.4-2.4-1.3-3.2c-0.9-0.9-2.1-1.7-3.7-2.4c-1.6-0.7-3.6-1.4-6-2
			c-2.4-0.6-5.2-1.2-8.3-1.9c-4.8-1.1-8.8-2.3-12.2-3.5c-3.4-1.2-6.2-2.6-8.4-4.2c-2.2-1.6-3.8-3.4-4.9-5.6
			c-1.1-2.1-1.6-4.6-1.6-7.4c0-3.7,0.8-7,2.5-9.9c1.7-2.9,3.9-5.3,6.8-7.2c2.9-1.9,6.2-3.3,10-4.3c3.8-1,7.9-1.5,12.2-1.5
			c6.1,0,11.8,0.8,17,2.5c5.2,1.6,9.7,3.5,13.4,5.6L197.7,384.8z"/>
		<path class="st1" d="M289.4,378.2h-28.2v58.6h-17.3v-58.6h-28.3v-13.7h73.8V378.2z"/>
		<path class="st1" d="M338.6,437.4c-6.3,0-12-1-17.2-3.1s-9.6-4.8-13.2-8.3c-3.7-3.4-6.5-7.4-8.6-11.8c-2.1-4.4-3.1-8.9-3.1-13.6
			c0-4.7,1.1-9.3,3.2-13.7c2.1-4.4,5.1-8.3,8.9-11.6c3.8-3.4,8.2-6.1,13.4-8.1c5.2-2,10.8-3,16.9-3c6.3,0,12,1.1,17.2,3.2
			c5.2,2.1,9.6,4.9,13.2,8.3c3.6,3.5,6.4,7.4,8.4,11.8c2,4.4,3,8.9,3,13.5c0,4.7-1.1,9.3-3.1,13.7c-2.1,4.4-5,8.3-8.7,11.6
			c-3.7,3.4-8.2,6-13.4,8C350.4,436.4,344.7,437.4,338.6,437.4z M314.1,400.7c0,2.9,0.5,5.8,1.6,8.5c1.1,2.7,2.7,5.1,4.9,7.2
			c2.1,2.1,4.7,3.8,7.8,5.1c3.1,1.3,6.5,1.9,10.4,1.9c3.9,0,7.4-0.7,10.4-2c3.1-1.3,5.6-3.1,7.7-5.2c2-2.2,3.6-4.6,4.6-7.3
			c1-2.7,1.6-5.5,1.6-8.3c0-2.9-0.6-5.8-1.7-8.5c-1.1-2.7-2.8-5.1-4.9-7.2c-2.1-2.1-4.6-3.7-7.7-5c-3-1.2-6.4-1.9-10.2-1.9
			c-3.9,0-7.4,0.7-10.4,2c-3.1,1.3-5.6,3.1-7.7,5.2c-2.1,2.1-3.7,4.5-4.8,7.2C314.7,395.3,314.1,398,314.1,400.7z"/>
		<path class="st1" d="M395,436.8v-72.3h39.3c4.1,0,7.9,0.7,11.3,2.1c3.4,1.4,6.4,3.3,8.9,5.6c2.5,2.3,4.5,4.9,5.9,7.8
			c1.4,2.9,2.1,5.9,2.1,8.8c0,4.6-1.4,8.8-4.3,12.5c-2.9,3.8-6.7,6.6-11.6,8.4l20.9,27h-19.7l-18.6-23.7h-16.9v23.7H395z
			 M412.3,399.5h21.6c3.1,0,5.8-1,7.9-3c2.1-2,3.2-4.5,3.2-7.6c0-1.6-0.3-3-1-4.3c-0.7-1.3-1.6-2.4-2.6-3.4
			c-1.1-0.9-2.4-1.7-3.8-2.2c-1.4-0.5-2.9-0.8-4.4-0.8h-20.9V399.5z"/>
		<path class="st1" d="M471,436.8l34.9-72.3H520l34.8,72.3h-18.3l-8-16.9h-31l-8,16.9H471z M513,383.5l-11.7,22.8h23L513,383.5z"/>
		<path class="st1" d="M623.7,429.5c-6.7,5.3-14.4,7.9-23.2,7.9c-5.6,0-10.9-1-15.8-3c-4.9-2-9.2-4.8-12.9-8.2
			c-3.7-3.4-6.6-7.4-8.7-11.8c-2.1-4.4-3.1-9.1-3.1-14c0-5,1-9.7,3.1-14.1c2.1-4.4,5-8.2,8.7-11.5c3.7-3.3,8.1-5.9,13.2-7.8
			c5.1-1.9,10.6-2.8,16.5-2.8c8,0,14.9,1.4,20.6,4.3c5.7,2.8,10,6.7,12.9,11.5l-13.2,8.8c-2-3.4-4.9-6-8.6-7.8
			c-3.7-1.9-7.8-2.8-12.3-2.8c-3.5,0-6.7,0.6-9.7,1.8c-2.9,1.2-5.4,2.8-7.4,4.9c-2.1,2.1-3.6,4.5-4.8,7.2c-1.1,2.8-1.7,5.7-1.7,8.8
			c0,3.3,0.6,6.3,1.9,9.1c1.2,2.8,3,5.1,5.2,7.1c2.2,2,4.8,3.6,7.8,4.7c3,1.2,6.3,1.7,9.8,1.7c7.9,0,15.1-3.1,21.6-9.2v-3.5H606
			v-11.4h32v37.5h-14.3V429.5z"/>
		<path class="st1" d="M715.6,423.1v13.7h-61.7v-72.3h60.5v13.7h-43.2v15.4h37.3v12.8h-37.3v16.7H715.6z"/>
	</g>
	<g>
		<path class="st1" d="M747.9,147.9c12.5,0,22.3,9.7,22.3,22c0,12.6-9.8,22.3-22.4,22.3c-12.6,0-22.6-9.7-22.6-22.3
			c0-12.3,10-22,22.6-22H747.9z M747.6,151.8c-10,0-17.6,8.2-17.6,18.2c0,10.3,7.6,18.3,17.9,18.3c10,0.1,17.3-8,17.3-18.1
			c0-10.1-7.3-18.3-17.5-18.3H747.6z M743.7,182.2h-4.3V159c2.4-0.4,4.8-0.7,8-0.7c3.9,0,5.8,0.7,7.3,1.8c1.4,1,2.4,2.8,2.4,4.8
			c0,2.9-2.1,4.7-4.6,5.5v0.3c2.1,0.8,3.2,2.6,3.9,5.5c0.7,3.6,1.1,5,1.7,5.8h-4.4c-0.7-0.8-1.2-2.9-1.8-6.1
			c-0.6-2.5-2.1-3.6-5.4-3.6h-2.8V182.2z M743.7,169.1h2.9c3.2,0,6-1,6-3.7c0-2.2-1.4-3.7-5.5-3.7c-1.7,0-2.6,0.1-3.3,0.3V169.1z"/>
	</g>
</g>
<g id="Layer_2">
</g>
<g id="Layer_3">
</g>
<g id="Layer_4">
</g>
<g id="Layer_5">
</g>
</svg>
