<svg xmlns="http://www.w3.org/2000/svg" viewBox="0 0 639.5 50.1"><title>Asset 1</title><g id="Layer_2" data-name="Layer 2"><g id="Layer_1-2" data-name="Layer 1"><path d="M47.5,24.4c0,14.8-10,24.6-27.1,24.6-2.1,0-6.9-.2-9.9-.2-4,0-8.2.1-10.5.2V47.6c4.3-.2,5.1-.9,5.1-5.8V8.1c0-4.9-.8-5.6-5.1-5.8V.9c1.9.1,5,.2,8.2.2h2.1C13.6,1,18.3.9,21,.9,39,.9,47.5,9.3,47.5,24.4ZM16,8V42c0,4.7.9,5.8,5.1,5.8,11.5,0,15.1-8.3,15.1-23.1C36.2,9.5,32,2.1,21,2.1,16.9,2.1,16,3.3,16,8Z" style="fill:#fff"/><path d="M90.1,43.3c1.3,3.3,3,4.3,4.3,4.3V49c-2.7-.1-6.6-.2-10.3-.2-4.2,0-8.1.1-10.4.2V47.6c3.3-.1,4.8-.6,4.8-2.5a9.85,9.85,0,0,0-.8-3.2L73.6,30.7H58.8L57,35.4a21.89,21.89,0,0,0-1.9,7.5c0,3.6,2.3,4.5,6,4.6v1.4c-3.1-.1-5.6-.2-8.5-.2-2,0-3.9.1-5.2.2V47.5c2-.4,4-2.1,5.9-7.1L68.8.6a17.72,17.72,0,0,0,2.4.1A19.27,19.27,0,0,0,73.6.6ZM66.4,11.2l-7,18.3H73.2Z" style="fill:#fff"/><path d="M139.7,2.3c-4.3.6-5.1,2.4-5.1,9v38h-3.5L101.6,11.9V38c0,7.5.6,9.2,6.6,9.8v1.4c-1.8-.1-4.9-.2-7.4-.2-2.1,0-4.5.1-5.9.2V47.8c4.3-.6,5.1-2.4,5.1-9V8.2c0-4.9-.8-5.6-5.1-5.8V1c1.4.1,3.8.2,5.9.2s4.3-.1,5.9-.2L133,33.4V12.1c0-7.5-.6-9.2-6.6-9.8V.9c1.8.1,4.9.2,7.4.2,2.1,0,4.5-.1,5.9-.2V2.3Z" style="fill:#fff"/><path d="M180.7,4.4A2.42,2.42,0,0,0,182,5c1,0,1.5-1.3,1.8-4.1h1.6c-.2,3.5-.3,8.2-.3,16.5h-1.6c-.7-6.2-1.6-9.5-5.1-12.3a12.44,12.44,0,0,0-8.6-3.4c-9.8,0-13.5,11.4-13.5,23.4,0,12.2,4.1,23.2,13.8,23.2a12.28,12.28,0,0,0,8.5-3.3c3.5-2.7,4.3-6.5,5-13.1h1.6c0,8.6.1,13.5.3,17.1h-1.6c-.3-2.8-.7-4-1.7-4a2.38,2.38,0,0,0-1.4.6c-3.3,2.4-6.7,4.4-12.6,4.4-14.4,0-24-9.1-24-24.6,0-15.2,9.9-25.4,24.1-25.4C174.2-.1,177.7,2.1,180.7,4.4Z" style="fill:#fff"/><path d="M229.2,49.1c-4.6-.2-11-.2-15.6-.2s-14.7,0-22.1.2V47.7c4.3-.2,5.1-.9,5.1-5.8V8.2c0-4.9-.8-5.6-5.1-5.8V1c7.4.2,17.6.2,22.1.2,4.2,0,10,0,14.2-.2-.3,4-.5,8.1-.5,10.1,0,1.8.1,3.5.2,4.6h-1.6c-1.4-10-4.9-13.1-11.2-13.1h-2.8c-4,0-4.7.6-4.7,4.8V24.2h2.2c5.4,0,7.4-5.3,8.1-9h1.6c-.2,2.9-.2,4.8-.2,6.4v3.3c0,2.2.1,4.5.4,9.7h-1.6c-.7-4.8-2.9-9-8.3-9h-2.2V42.7c0,4.2.7,4.8,4.7,4.8h3.4c6.1,0,10.3-3.5,12-14.5h1.6c-.1,1.5-.2,3.5-.2,5.7S228.8,45,229.2,49.1Z" style="fill:#fff"/><path d="M300.3,2.3c-4.3.2-5.1.9-5.1,5.8V41.8c0,4.9.8,5.6,5.1,5.8V49c-2.2-.1-6.1-.2-10.3-.2-4,0-8.2.1-10.7.2V47.6c4.3-.2,5.1-.9,5.1-5.8V25.5h-18V41.8c0,4.9.8,5.6,5.1,5.8V49c-2.5-.1-6.5-.2-10.3-.2-4.3,0-8.4.1-10.7.2V47.6c4.3-.2,5.1-.9,5.1-5.8V8.1c0-4.9-.8-5.6-5.1-5.8V.9c2.3.1,6.4.2,10.7.2,3.8,0,7.8-.1,10.3-.2V2.3c-4.3.2-5.1.9-5.1,5.8v16h18V8.1c0-4.9-.8-5.6-5.1-5.8V.9c2.5.1,6.7.2,10.7.2,4.2,0,8.1-.1,10.3-.2Z" style="fill:#fff"/><path d="M353.1,24.6c0,15.2-10,25.4-24.1,25.4-14.4,0-24-9.1-24-24.6C305,10.2,314.9,0,329.1,0S353.1,9,353.1,24.6Zm-36.8.5c0,14.5,5.8,23.7,13,23.7,7.6,0,12.5-9.9,12.5-23.9,0-14.5-5.8-23.7-13-23.7C321.2,1.2,316.3,11,316.3,25.1Z" style="fill:#fff"/><path d="M373.6,41.4c0,5.3,1.2,6,7.3,6.1V49c-2.8-.1-7.5-.2-12.4-.2-3.9,0-7.8.1-10.8.2V47.6c4.3-.2,5.1-.9,5.1-5.8V8.1c0-4.9-.8-5.6-5.1-5.8V.9c2.3.1,6.5.2,10.3.2,4.4,0,9-.1,10.7-.1,12.7,0,18.8,5.5,18.8,13.4,0,6.6-4.3,15.2-20.3,15.2h-3.6Zm0-33.3V28.2h2.9c8,0,9.7-6.2,9.7-13.1,0-8.6-2.3-12.8-8.4-12.8C374.4,2.3,373.6,3.4,373.6,8.1Z" style="fill:#fff"/><path d="M438.7,49.1c-4.6-.2-11-.2-15.6-.2s-14.7,0-22.1.2V47.7c4.3-.2,5.1-.9,5.1-5.8V8.2c0-4.9-.8-5.6-5.1-5.8V1c7.4.2,17.6.2,22.1.2,4.2,0,10,0,14.2-.2-.3,4-.5,8.1-.5,10.1,0,1.8.1,3.5.2,4.6h-1.6c-1.4-10-4.9-13.1-11.2-13.1h-2.8c-4,0-4.7.6-4.7,4.8V24.2h2.2c5.4,0,7.4-5.3,8.1-9h1.6c-.2,2.9-.2,4.8-.2,6.4v3.3c0,2.2.1,4.5.4,9.7h-1.6c-.7-4.8-2.9-9-8.3-9h-2.2V42.7c0,4.2.7,4.8,4.7,4.8h3.4c6.1,0,10.3-3.5,12-14.5h1.6c-.1,1.5-.2,3.5-.2,5.7S438.3,45,438.7,49.1Z" style="fill:#fff"/><path d="M497.1,4.4a2.42,2.42,0,0,0,1.3.6c1,0,1.5-1.3,1.8-4.1h1.6c-.2,3.5-.3,8.2-.3,16.5h-1.6c-.7-6.2-1.6-9.5-5.1-12.3a12.44,12.44,0,0,0-8.6-3.4c-9.8,0-13.5,11.4-13.5,23.4,0,12.2,4.1,23.2,13.8,23.2A12.28,12.28,0,0,0,495,45c3.5-2.7,4.3-6.5,5-13.1h1.6c0,8.6.1,13.5.3,17.1h-1.6c-.3-2.8-.7-4-1.7-4a2.38,2.38,0,0,0-1.4.6c-3.3,2.4-6.7,4.4-12.6,4.4-14.4,0-24-9.1-24-24.6,0-15.2,9.9-25.4,24.1-25.4C490.6-.1,494.1,2.1,497.1,4.4Z" style="fill:#fff"/><path d="M551.2,2.3c-4.3.6-5.1,2.4-5.1,9v18c0,5.9-.7,10.9-2.8,14.4-2.3,3.9-6.8,6.3-13.7,6.3-4.2,0-8.9-.8-12.3-3.5-4.4-3.5-5.3-8.4-5.3-17.1V8.1c0-4.9-.8-5.6-5.1-5.8V.9c2.3.1,6.4.2,10.7.2,4.1,0,8.2-.1,10.8-.2V2.3c-4.6.2-5.5.9-5.5,5.8V33.8c0,9.1,2.2,13.8,9.4,13.8,9.6,0,12.4-7.3,12.4-17.6V12c0-7.5-.9-9.2-6.6-9.8V.8c1.8.1,4.9.2,7.3.2,2.2,0,4.5-.1,5.9-.2V2.3Z" style="fill:#fff"/><path d="M600.8,46.1a10.67,10.67,0,0,1-9,4c-4.9,0-8.2-1.7-9.2-7.4l-1.2-6.8c-1-5.7-2.1-9.7-6.3-9.7h-4.4V41.8c0,4.9.8,5.6,5.1,5.8V49c-2.5-.1-6.5-.2-10.3-.2-4.3,0-8.4.1-10.7.2V47.6c4.3-.2,5.1-.9,5.1-5.8V8.1c0-4.9-.8-5.6-5.1-5.8V.9c2.3.1,6.5.2,10.3.2,4.4,0,9-.1,10.7-.1,12.7,0,18.8,4.3,18.8,11.8,0,5.5-3.4,11.8-15.3,13.1h0c8.2.7,11.9,3.3,13,9l1.5,7c.8,3.6,1.5,4.9,3.2,4.9a3.34,3.34,0,0,0,2.8-1.6Zm-30.1-38V24.8h2.9c8,0,9.7-5,9.7-11.3,0-7.1-2.3-11.3-8.4-11.3C571.4,2.3,570.7,3.4,570.7,8.1Z" style="fill:#fff"/><path d="M639.5,49.1c-4.6-.2-11-.2-15.6-.2s-14.7,0-22.1.2V47.7c4.3-.2,5.1-.9,5.1-5.8V8.2c0-4.9-.8-5.6-5.1-5.8V1c7.4.2,17.6.2,22.1.2,4.2,0,10,0,14.2-.2-.3,4-.5,8.1-.5,10.1,0,1.8.1,3.5.2,4.6h-1.5c-1.4-10-4.9-13.1-11.2-13.1h-2.8c-4,0-4.7.6-4.7,4.8V24.2h2.2c5.4,0,7.4-5.3,8.1-9h1.6c-.2,2.9-.2,4.8-.2,6.4v3.3c0,2.2.1,4.5.4,9.7h-1.6c-.7-4.8-2.9-9-8.3-9h-2.2V42.7c0,4.2.7,4.8,4.7,4.8h3.4c6.1,0,10.3-3.5,12-14.5h1.6c-.1,1.5-.2,3.5-.2,5.7S639.1,45,639.5,49.1Z" style="fill:#fff"/></g></g></svg>