<svg xmlns="http://www.w3.org/2000/svg" width="746" height="145" viewBox="0 0 746 145">
  <defs>
    <style>
      .cls-1 {
        fill: #fff;
        fill-rule: evenodd;
      }
    </style>
  </defs>
  <path id="Dystonia_Recovery_Program" data-name="Dystonia Recovery Program" class="cls-1" d="M2.782,58.181A3.433,3.433,0,0,0,.6,58.664a1.857,1.857,0,0,0-.533,1.448v65.647h12.51q9.794,0,14.159-8.93T31.1,88.591a81.46,81.46,0,0,0-1.164-15.2,24.913,24.913,0,0,0-3.491-9.316,11.838,11.838,0,0,0-5.916-4.634,25.608,25.608,0,0,0-8.437-1.255H2.782ZM18.1,102.155a55.45,55.45,0,0,1-1.261,8.543,8.305,8.305,0,0,1-1.794,3.91,3.205,3.205,0,0,1-2.182.917h-1.94v-47.5h1.843a5.086,5.086,0,0,1,2.376.579,4.475,4.475,0,0,1,1.843,2.607A27.608,27.608,0,0,1,18.153,77.1a96.424,96.424,0,0,1,.436,10.33Q18.59,96.605,18.1,102.155ZM44.688,127.3q-0.486,4.729-1.794,6.372a3.835,3.835,0,0,1-3.055,1.641,15.075,15.075,0,0,1-3.928-.483,7.728,7.728,0,0,1-2.667-1.158,8.077,8.077,0,0,0-1.018,2.751,16.029,16.029,0,0,0-.339,3.138,4.707,4.707,0,0,0,.388,1.931,3.447,3.447,0,0,0,1.406,1.5,9.057,9.057,0,0,0,2.715,1.014,20.611,20.611,0,0,0,4.413.386,14.848,14.848,0,0,0,5.043-.772,8.809,8.809,0,0,0,3.734-2.655,16.568,16.568,0,0,0,2.764-5.069,65.8,65.8,0,0,0,2.231-7.916l10.862-50.49q-4.073,0-6.352.048a16.017,16.017,0,0,0-3.394.338,2.043,2.043,0,0,0-1.406.869,4.932,4.932,0,0,0-.388,1.738L52.058,94.19q-0.486,3.091-.824,6.324T50.652,106.5q-0.243,2.751-.436,4.682T50.022,113.5q-0.1-.579-0.291-2.558t-0.485-4.731q-0.291-2.751-.727-5.937T47.6,94.19l-2.812-16.7q-4.269,0-6.546.048a17.679,17.679,0,0,0-3.3.29,1.124,1.124,0,0,0-1.067.821,5.059,5.059,0,0,0,.242,1.641ZM76.13,77.441a13.207,13.207,0,0,0-4.9,2.51,9.206,9.206,0,0,0-2.667,3.813,13.475,13.475,0,0,0-.824,4.73,13.332,13.332,0,0,0,1.067,4.827A17.411,17.411,0,0,0,72.4,98.728l8.437,8.881a7.555,7.555,0,0,1,1.794,2.993,10.065,10.065,0,0,1,.34,2.413,3.8,3.8,0,0,1-1.212,2.945,5.385,5.385,0,0,1-3.734,1.11,17.771,17.771,0,0,1-4.219-.531,18.521,18.521,0,0,1-4.219-1.593,13.337,13.337,0,0,0-1.358,3.331,11.853,11.853,0,0,0-.388,2.751,4.158,4.158,0,0,0,.921,2.752,6.154,6.154,0,0,0,2.424,1.737,14.54,14.54,0,0,0,3.588.917,31.936,31.936,0,0,0,4.413.29q7.467,0,11.88-3.668t4.413-10.234a26.167,26.167,0,0,0-.194-3.33,10.67,10.67,0,0,0-.776-2.848,20.027,20.027,0,0,0-1.5-2.8,25.028,25.028,0,0,0-2.376-3.089l-7.177-7.241a10.991,10.991,0,0,1-2.376-2.993,4.958,4.958,0,0,1-.436-1.834q0-2.9,4.558-2.9a19.112,19.112,0,0,1,4.316.483,15.825,15.825,0,0,1,4.025,1.545,8.244,8.244,0,0,0,1.552-2.51,7.277,7.277,0,0,0,.582-2.7,6.419,6.419,0,0,0-.339-1.931A4.159,4.159,0,0,0,93.78,78.7a10.487,10.487,0,0,0-3.588-1.545,26.32,26.32,0,0,0-6.449-.627A26.9,26.9,0,0,0,76.13,77.441Zm26.846,35.671a38.481,38.481,0,0,0,.388,5.744,11.374,11.374,0,0,0,1.455,4.3,6.829,6.829,0,0,0,3.055,2.655,12.479,12.479,0,0,0,5.188.917q1.358,0,2.909-.145a9.11,9.11,0,0,0,2.861-.724,6.069,6.069,0,0,0,2.182-1.593,4.073,4.073,0,0,0,.873-2.751,15.54,15.54,0,0,0-.242-2.9q-0.243-1.254-.437-2.317a11.647,11.647,0,0,1-5.043,1.255,1.8,1.8,0,0,1-2.036-1.5,16.393,16.393,0,0,1-.291-3.137V86.66h5.819a2.523,2.523,0,0,0,1.212-.241,1.694,1.694,0,0,0,.63-1.207,17.779,17.779,0,0,0,.243-2.8q0.046-1.833.048-4.924h-7.952V60.112q-3.3,0-5.383.048a14.055,14.055,0,0,0-3.3.386,3,3,0,0,0-1.7,1.014,3.277,3.277,0,0,0-.485,1.931v14H99.388a2.431,2.431,0,0,0-1.261.29,1.74,1.74,0,0,0-.679,1.207,16.361,16.361,0,0,0-.242,2.751q-0.05,1.835-.048,4.923h5.819v26.452Zm20.466,1.5a19.256,19.256,0,0,0,2.813,7.627,9.19,9.19,0,0,0,4.752,3.572,22.525,22.525,0,0,0,6.837.917,16.156,16.156,0,0,0,6.885-1.4,11.96,11.96,0,0,0,4.995-4.441,23.081,23.081,0,0,0,3.006-7.916,58.792,58.792,0,0,0,1.018-11.826,65.022,65.022,0,0,0-.921-12.068,21.074,21.074,0,0,0-2.764-7.53,9.843,9.843,0,0,0-4.7-3.91,18.621,18.621,0,0,0-6.74-1.11q-7.761,0-11.929,5.937t-4.17,19.066A74.5,74.5,0,0,0,123.442,114.608Zm11.3-21.383a26.425,26.425,0,0,1,.776-4.73,4.092,4.092,0,0,1,1.213-2.172,2.522,2.522,0,0,1,1.5-.531,2.948,2.948,0,0,1,1.745.483,3.792,3.792,0,0,1,1.116,2.124,23.94,23.94,0,0,1,.582,4.73q0.145,3.091.145,8.3,0,5.6-.339,8.833a30.806,30.806,0,0,1-.825,4.924,3.737,3.737,0,0,1-1.164,2.123,2.5,2.5,0,0,1-1.357.435,3.056,3.056,0,0,1-1.6-.435,3.339,3.339,0,0,1-1.164-2.075,28.648,28.648,0,0,1-.679-4.875q-0.243-3.234-.242-8.93Q134.45,96.315,134.74,93.225Zm22.569,32.534q3.975,0,6.207-.049a30.009,30.009,0,0,0,3.249-.193,1.563,1.563,0,0,0,1.212-.531,2.673,2.673,0,0,0,.194-1.158V86.95a5.981,5.981,0,0,1,3.685-1.159,2.517,2.517,0,0,1,2.619,1.4,15.4,15.4,0,0,1,.581,5.165v33.4q4.074,0,6.353-.049t3.394-.193a1.705,1.705,0,0,0,1.309-.531,2.673,2.673,0,0,0,.194-1.158V88.977a18.764,18.764,0,0,0-.824-5.986,8.61,8.61,0,0,0-2.522-3.862,9.777,9.777,0,0,0-4.315-2.027,31.432,31.432,0,0,0-10.28-.29q-2.135.289-4.219,0.772T160.267,78.6a18.6,18.6,0,0,0-2.958,1.11v46.05Zm46.852-48.27q-3.4,0-5.528.1a11.884,11.884,0,0,0-3.346.531,2.876,2.876,0,0,0-1.7,1.4,6.122,6.122,0,0,0-.485,2.7v43.54q4.074,0,6.352-.049a30.533,30.533,0,0,0,3.3-.193,1.563,1.563,0,0,0,1.212-.531,2.673,2.673,0,0,0,.194-1.158V77.489ZM195,69.573a4.777,4.777,0,0,0,3.831,1.641,4.934,4.934,0,0,0,4.316-2.172,10.688,10.688,0,0,0,1.5-6.13q0-3.957-1.067-5.5t-4.073-1.545A5.054,5.054,0,0,0,195,57.939a9.555,9.555,0,0,0-1.406,5.455Q193.59,67.933,195,69.573ZM208.851,85.6a11.041,11.041,0,0,0,1.163,3.379,35.284,35.284,0,0,1,5.674-1.448,34.163,34.163,0,0,1,5.964-.579,4.751,4.751,0,0,1,3.152.82,3.538,3.538,0,0,1,.921,2.751v6.661a8.286,8.286,0,0,0-3.249-1.159,20.84,20.84,0,0,0-2.958-.29,14.1,14.1,0,0,0-4.17.627,7.884,7.884,0,0,0-3.588,2.365,12.55,12.55,0,0,0-2.473,4.875,29.241,29.241,0,0,0-.921,8.061,22.624,22.624,0,0,0,1.163,8.013,10.72,10.72,0,0,0,3.055,4.537,9.736,9.736,0,0,0,4.364,2.027,27.027,27.027,0,0,0,5.189.483,35.08,35.08,0,0,0,7.9-.821,22.218,22.218,0,0,0,6.061-2.268q0.194-2.7.291-6.275t0.145-7.627q0.048-4.055.049-8.4V88.3q0-6.564-2.764-9.171t-9.456-2.607a37.923,37.923,0,0,0-9.6,1.014,17.657,17.657,0,0,0-4.849,1.786,2.887,2.887,0,0,0-1.018,1.5,5.934,5.934,0,0,0-.339,1.882A18.121,18.121,0,0,0,208.851,85.6Zm16.874,22.2v3.572q0,1.739-.048,3.234t-0.146,2.269a3.025,3.025,0,0,1-1.212.724,4.459,4.459,0,0,1-1.406.241,2.421,2.421,0,0,1-2.473-1.5,13.928,13.928,0,0,1-.631-4.972q0-4.633.873-6.178a2.753,2.753,0,0,1,2.522-1.545,6.735,6.735,0,0,1,1.309.145,2.317,2.317,0,0,1,1.212.627V107.8Zm32.36-49.621a1.666,1.666,0,0,0-1.745.965,1.207,1.207,0,0,0-.194.965v65.647q3.975,0,6.206-.049a29.991,29.991,0,0,0,3.249-.193,1.563,1.563,0,0,0,1.212-.531,2.673,2.673,0,0,0,.194-1.158V99.693h2.328a28.751,28.751,0,0,1,1.94,3.379,32.181,32.181,0,0,1,1.988,5.261,55.183,55.183,0,0,1,1.551,7.482,92.653,92.653,0,0,1,.825,9.944q3.586,0.289,6.4.289,1.94,0,3.055-.1a4.907,4.907,0,0,0,1.7-.386,1.3,1.3,0,0,0,.728-0.773,4.038,4.038,0,0,0,.145-1.158A63.916,63.916,0,0,0,286.6,113.6a52.555,52.555,0,0,0-2.085-7.772,34.092,34.092,0,0,0-2.618-5.7,44.062,44.062,0,0,0-2.57-3.909,16.535,16.535,0,0,0,4.9-6.613q1.892-4.294,1.891-11.537a31.965,31.965,0,0,0-1.26-9.751,14.539,14.539,0,0,0-3.637-6.13A12.815,12.815,0,0,0,275.3,59.05a34.124,34.124,0,0,0-8.1-.869h-9.116Zm15.469,25.438a13.094,13.094,0,0,1-1.019,3.765,3.555,3.555,0,0,1-3.588,2.365h-1.94v-22.2h2.619a3.4,3.4,0,0,1,3.249,2.365q1.018,2.367,1.018,7.578A44.969,44.969,0,0,1,273.554,83.619Zm25.429-6.082a11.43,11.43,0,0,0-5.431,3.958,22.641,22.641,0,0,0-3.733,8.3,57.53,57.53,0,0,0-1.407,14.143,47.465,47.465,0,0,0,1.116,11.3,18.783,18.783,0,0,0,3.1,7,10.242,10.242,0,0,0,4.752,3.524,18.309,18.309,0,0,0,6.061.965,35.435,35.435,0,0,0,5.334-.386,19.486,19.486,0,0,0,4.413-1.159,8.493,8.493,0,0,0,2.958-1.882,3.587,3.587,0,0,0,1.066-2.558q0-1.641-.194-3.717a15.949,15.949,0,0,0-.679-3.524,29.238,29.238,0,0,1-5.091,1.979,19.041,19.041,0,0,1-5.188.724q-3.492,0-4.8-2.075t-1.5-6.71q1.746,0,3.928-.1t4.461-.29q2.277-.192,4.461-0.434a36.868,36.868,0,0,0,3.927-.628,34.736,34.736,0,0,0,1.067-6.516q0.291-3.715.291-7.192,0-8.4-3.3-12.067t-9.116-3.669A20.79,20.79,0,0,0,298.983,77.537Zm6.546,8.592a1.956,1.956,0,0,1,1.019,1.014,7.253,7.253,0,0,1,.581,2.172,28.344,28.344,0,0,1,.194,3.717q0,1.158-.1,2.655a9.7,9.7,0,0,1-.388,2.365,10.126,10.126,0,0,1-3.1.676q-2.037.195-4.073,0.193a40.635,40.635,0,0,1,1.164-9.847q0.967-3.186,3.2-3.186A4.228,4.228,0,0,1,305.529,86.129Zm38.91-8.3a11.454,11.454,0,0,0-5.819-1.3,23.878,23.878,0,0,0-6.11.821,11.388,11.388,0,0,0-5.576,3.572,20.635,20.635,0,0,0-4.024,7.916,49.746,49.746,0,0,0-1.552,13.854,72.981,72.981,0,0,0,.824,12.212,19.123,19.123,0,0,0,2.57,7.289,8.883,8.883,0,0,0,4.461,3.572,19.491,19.491,0,0,0,6.5.965,17.882,17.882,0,0,0,7.613-1.4q2.957-1.4,2.958-3.813a17.54,17.54,0,0,0-.194-2.558,30.237,30.237,0,0,0-.679-3.138,12.726,12.726,0,0,1-2.91.965,15.255,15.255,0,0,1-3.3.387,6.36,6.36,0,0,1-3.2-.724,4.87,4.87,0,0,1-1.988-2.462A16.331,16.331,0,0,1,333,109.443a69.037,69.037,0,0,1-.291-6.95,52.563,52.563,0,0,1,.582-8.786,15.874,15.874,0,0,1,1.552-4.972,4.993,4.993,0,0,1,2.182-2.22,6.35,6.35,0,0,1,2.57-.531,14.722,14.722,0,0,1,3.249.386,18.147,18.147,0,0,1,2.861.869,17.343,17.343,0,0,0,.776-3.234,20.6,20.6,0,0,0,.194-2.558A4.02,4.02,0,0,0,344.439,77.827Zm4.794,36.781a19.241,19.241,0,0,0,2.812,7.627,9.194,9.194,0,0,0,4.752,3.572,22.525,22.525,0,0,0,6.837.917,16.164,16.164,0,0,0,6.886-1.4,11.964,11.964,0,0,0,4.994-4.441,23.061,23.061,0,0,0,3.007-7.916,58.865,58.865,0,0,0,1.018-11.826,65.011,65.011,0,0,0-.922-12.068,21.094,21.094,0,0,0-2.763-7.53,9.845,9.845,0,0,0-4.7-3.91,18.621,18.621,0,0,0-6.74-1.11q-7.76,0-11.929,5.937t-4.17,19.066A74.386,74.386,0,0,0,349.233,114.608Zm11.3-21.383a26.334,26.334,0,0,1,.776-4.73,4.085,4.085,0,0,1,1.212-2.172,2.525,2.525,0,0,1,1.5-.531,2.949,2.949,0,0,1,1.746.483,3.8,3.8,0,0,1,1.115,2.124,23.94,23.94,0,0,1,.582,4.73q0.146,3.091.145,8.3,0,5.6-.339,8.833a30.827,30.827,0,0,1-.824,4.924,3.749,3.749,0,0,1-1.164,2.123,2.5,2.5,0,0,1-1.358.435,3.059,3.059,0,0,1-1.6-.435,3.339,3.339,0,0,1-1.164-2.075,28.648,28.648,0,0,1-.679-4.875q-0.243-3.234-.242-8.93Q360.24,96.315,360.531,93.225Zm28.581,28.189a10.067,10.067,0,0,0,1.455,3.428,3.507,3.507,0,0,0,3.1,1.4q1.551,0,3.879-.1a30.951,30.951,0,0,0,3.977-.386l9.7-48.27q-4.171,0-6.45.048a23.752,23.752,0,0,0-3.345.241,1.827,1.827,0,0,0-1.31.627,3.362,3.362,0,0,0-.339,1.207l-1.358,11.778q-0.389,3.091-.727,7.1t-0.533,7.579q-0.39,4.152-.582,8.4h-0.194q-0.2-4.248-.582-8.4-0.291-3.572-.631-7.579t-0.727-7.1l-1.746-13.9q-4.655,0-7.176.048a17.477,17.477,0,0,0-3.637.338,1.365,1.365,0,0,0-1.212.965,5.011,5.011,0,0,0,.194,1.834Zm33.78-43.877a11.428,11.428,0,0,0-5.43,3.958,22.624,22.624,0,0,0-3.734,8.3,57.537,57.537,0,0,0-1.406,14.143,47.471,47.471,0,0,0,1.115,11.3,18.783,18.783,0,0,0,3.1,7,10.252,10.252,0,0,0,4.752,3.524,18.315,18.315,0,0,0,6.062.965,35.432,35.432,0,0,0,5.333-.386,19.486,19.486,0,0,0,4.413-1.159,8.474,8.474,0,0,0,2.958-1.882,3.584,3.584,0,0,0,1.067-2.558q0-1.641-.194-3.717a16.007,16.007,0,0,0-.679-3.524,29.217,29.217,0,0,1-5.092,1.979,19.03,19.03,0,0,1-5.188.724q-3.492,0-4.8-2.075t-1.5-6.71q1.746,0,3.928-.1t4.461-.29q2.277-.192,4.461-0.434a36.889,36.889,0,0,0,3.928-.628,34.818,34.818,0,0,0,1.067-6.516q0.291-3.715.29-7.192,0-8.4-3.3-12.067t-9.116-3.669A20.79,20.79,0,0,0,422.892,77.537Zm6.547,8.592a1.954,1.954,0,0,1,1.018,1.014,7.28,7.28,0,0,1,.582,2.172,28.344,28.344,0,0,1,.194,3.717c0,0.772-.034,1.658-0.1,2.655a9.7,9.7,0,0,1-.388,2.365,10.134,10.134,0,0,1-3.1.676q-2.036.195-4.073,0.193a40.635,40.635,0,0,1,1.164-9.847q0.969-3.186,3.2-3.186A4.238,4.238,0,0,1,429.439,86.129Zm16.992,39.63q4.168,0,6.4-.049a29.968,29.968,0,0,0,3.248-.193,1.568,1.568,0,0,0,1.213-.531,2.688,2.688,0,0,0,.194-1.158l0.1-35.43a6.875,6.875,0,0,1,2.133-1.159,6.629,6.629,0,0,1,2.037-.386A10.1,10.1,0,0,1,463.4,87a7.967,7.967,0,0,1,1.94.627,15.23,15.23,0,0,0,.873-3.572,26.117,26.117,0,0,0,.194-2.7,4.769,4.769,0,0,0-1.261-3.669q-1.262-1.158-5.237-1.158a21.062,21.062,0,0,0-7.516,1.3,27.822,27.822,0,0,0-5.964,3.041v44.891Zm33.316,1.544q-0.486,4.729-1.794,6.372a3.836,3.836,0,0,1-3.055,1.641,15.079,15.079,0,0,1-3.928-.483,7.73,7.73,0,0,1-2.667-1.158,8.083,8.083,0,0,0-1.018,2.751,16.011,16.011,0,0,0-.339,3.138,4.7,4.7,0,0,0,.388,1.931,3.446,3.446,0,0,0,1.406,1.5,9.055,9.055,0,0,0,2.715,1.014,20.618,20.618,0,0,0,4.413.386,14.852,14.852,0,0,0,5.043-.772,8.8,8.8,0,0,0,3.733-2.655,16.545,16.545,0,0,0,2.764-5.069,65.715,65.715,0,0,0,2.231-7.916L500.5,77.489q-4.074,0-6.353.048a16.024,16.024,0,0,0-3.394.338,2.043,2.043,0,0,0-1.406.869,4.941,4.941,0,0,0-.388,1.738L487.117,94.19q-0.486,3.091-.824,6.324t-0.582,5.985q-0.243,2.751-.436,4.682t-0.194,2.317q-0.1-.579-0.291-2.558t-0.485-4.731q-0.291-2.751-.727-5.937t-0.922-6.082l-2.812-16.7q-4.269,0-6.546.048a17.664,17.664,0,0,0-3.3.29,1.125,1.125,0,0,0-1.067.821,5.04,5.04,0,0,0,.242,1.641Zm37.985-1.544q4.072,0,6.255-.049a29.481,29.481,0,0,0,3.2-.193,1.567,1.567,0,0,0,1.212-.531,2.673,2.673,0,0,0,.194-1.158V99.693h0.679a24.825,24.825,0,0,0,6.691-.917,14.28,14.28,0,0,0,5.916-3.331,17.07,17.07,0,0,0,4.219-6.613,30.646,30.646,0,0,0,1.6-10.764,31.962,31.962,0,0,0-1.261-9.751,14.529,14.529,0,0,0-3.637-6.13,12.81,12.81,0,0,0-5.916-3.138,34.115,34.115,0,0,0-8.1-.869h-9.116a2.06,2.06,0,0,0-1.6.434,2.487,2.487,0,0,0-.339,1.5v65.647Zm17.408-42.43a13.448,13.448,0,0,1-1.018,3.958,4.437,4.437,0,0,1-1.552,1.931,3.837,3.837,0,0,1-2.037.531h-1.939v-22.2h2.618q4.266,0,4.267,9.171A52.192,52.192,0,0,1,535.14,83.329Zm15.925,42.43q4.17,0,6.4-.049a29.991,29.991,0,0,0,3.249-.193,1.563,1.563,0,0,0,1.212-.531,2.673,2.673,0,0,0,.194-1.158l0.1-35.43a6.891,6.891,0,0,1,2.134-1.159,6.623,6.623,0,0,1,2.036-.386,10.1,10.1,0,0,1,1.649.145,7.98,7.98,0,0,1,1.94.627,15.226,15.226,0,0,0,.872-3.572,26.117,26.117,0,0,0,.194-2.7,4.769,4.769,0,0,0-1.26-3.669q-1.261-1.158-5.237-1.158a21.058,21.058,0,0,0-7.516,1.3,27.855,27.855,0,0,0-5.965,3.041v44.891Zm21.2-11.151a19.256,19.256,0,0,0,2.813,7.627,9.194,9.194,0,0,0,4.752,3.572,22.525,22.525,0,0,0,6.837.917,16.156,16.156,0,0,0,6.885-1.4,11.96,11.96,0,0,0,5-4.441,23.081,23.081,0,0,0,3.006-7.916,58.785,58.785,0,0,0,1.019-11.826,65.011,65.011,0,0,0-.922-12.068,21.074,21.074,0,0,0-2.764-7.53,9.843,9.843,0,0,0-4.7-3.91,18.621,18.621,0,0,0-6.74-1.11q-7.761,0-11.929,5.937t-4.17,19.066A74.5,74.5,0,0,0,572.269,114.608Zm11.3-21.383a26.441,26.441,0,0,1,.775-4.73,4.092,4.092,0,0,1,1.213-2.172,2.525,2.525,0,0,1,1.5-.531,2.946,2.946,0,0,1,1.745.483A3.792,3.792,0,0,1,589.92,88.4a23.94,23.94,0,0,1,.582,4.73q0.146,3.091.145,8.3,0,5.6-.339,8.833a30.806,30.806,0,0,1-.825,4.924,3.743,3.743,0,0,1-1.163,2.123,2.509,2.509,0,0,1-1.358.435,3.059,3.059,0,0,1-1.6-.435,3.339,3.339,0,0,1-1.164-2.075,28.648,28.648,0,0,1-.679-4.875q-0.243-3.234-.242-8.93Q583.277,96.315,583.568,93.225Zm31.539-15.832a12.016,12.016,0,0,0-5.189,2.944,13.2,13.2,0,0,0-3.248,5.551,28.437,28.437,0,0,0-1.116,8.592,24.179,24.179,0,0,0,1.31,8.254,11.515,11.515,0,0,0,4.412,5.744,20.623,20.623,0,0,0-4.509,4.731,8.776,8.776,0,0,0-1.5,4.247,3.927,3.927,0,0,0,1.213,3.379,9.616,9.616,0,0,0,3.927,2.124,17.4,17.4,0,0,0-4.7,4.779,10.972,10.972,0,0,0-1.794,6.13,13.02,13.02,0,0,0,.582,3.765,7.686,7.686,0,0,0,2.279,3.476,13.134,13.134,0,0,0,4.8,2.558,26.487,26.487,0,0,0,8.049,1.013,23.437,23.437,0,0,0,8.438-1.351,15.65,15.65,0,0,0,5.721-3.669,13.973,13.973,0,0,0,3.249-5.454,21.609,21.609,0,0,0,1.019-6.71q0-5.694-3.3-8.3t-9.5-3.669a58.585,58.585,0,0,0-5.916-.724q-2.424-.144-2.424-1.3a5.126,5.126,0,0,1,1.164-2.7,8.884,8.884,0,0,0,1.26.1h1.358q8.438,0,12.074-3.959t3.637-11.778a17.4,17.4,0,0,0-.63-4.924,14.458,14.458,0,0,0-1.7-3.765q0.582,0.1,1.067.145a9.474,9.474,0,0,0,.97.048,3.386,3.386,0,0,0,2.424-.917,4.044,4.044,0,0,0,.97-3.041,12.614,12.614,0,0,0-.339-3.137,9.373,9.373,0,0,0-.824-2.172H626.793a14.868,14.868,0,0,0-4.849-.869A24.971,24.971,0,0,0,615.107,77.392Zm9.455,8.5q0.873,1.738.873,6.372a48.306,48.306,0,0,1-.242,5.358,11.04,11.04,0,0,1-.776,3.234,3.233,3.233,0,0,1-1.358,1.593,3.993,3.993,0,0,1-1.891.435,3.211,3.211,0,0,1-3.2-1.883q-0.873-1.882-.873-7,0-5.7,1.212-7.772a3.59,3.59,0,0,1,3.152-2.076A3.168,3.168,0,0,1,624.562,85.888Zm2.134,45.036a5.114,5.114,0,0,1-1.018,1.882,5.67,5.67,0,0,1-1.94,1.448,6.828,6.828,0,0,1-2.958.579q-3.3,0-4.461-.965a3.432,3.432,0,0,1-1.164-2.8,7.751,7.751,0,0,1,1.019-3.909,9.995,9.995,0,0,1,2.667-3.041,35.431,35.431,0,0,1,4.412.675,7.268,7.268,0,0,1,2.425.966,2.637,2.637,0,0,1,1.066,1.351,6.565,6.565,0,0,1,.243,1.931A6.857,6.857,0,0,1,626.7,130.924Zm15.236-5.165q4.168,0,6.4-.049a30.009,30.009,0,0,0,3.249-.193,1.563,1.563,0,0,0,1.212-.531,2.673,2.673,0,0,0,.194-1.158l0.1-35.43a6.886,6.886,0,0,1,2.133-1.159,6.629,6.629,0,0,1,2.037-.386A10.1,10.1,0,0,1,658.9,87a7.961,7.961,0,0,1,1.939.627,15.181,15.181,0,0,0,.873-3.572,26.117,26.117,0,0,0,.194-2.7,4.765,4.765,0,0,0-1.261-3.669q-1.261-1.158-5.237-1.158a21.057,21.057,0,0,0-7.515,1.3,27.855,27.855,0,0,0-5.965,3.041v44.891ZM665.938,85.6a11.044,11.044,0,0,0,1.164,3.379,35.27,35.27,0,0,1,5.673-1.448,34.182,34.182,0,0,1,5.965-.579,4.748,4.748,0,0,1,3.151.82,3.535,3.535,0,0,1,.922,2.751v6.661a8.286,8.286,0,0,0-3.249-1.159,20.84,20.84,0,0,0-2.958-.29,14.1,14.1,0,0,0-4.17.627,7.878,7.878,0,0,0-3.588,2.365,12.536,12.536,0,0,0-2.473,4.875,29.237,29.237,0,0,0-.922,8.061,22.6,22.6,0,0,0,1.164,8.013,10.711,10.711,0,0,0,3.055,4.537,9.731,9.731,0,0,0,4.364,2.027,27.027,27.027,0,0,0,5.189.483,35.065,35.065,0,0,0,7.9-.821,22.212,22.212,0,0,0,6.062-2.268q0.192-2.7.291-6.275t0.145-7.627q0.048-4.055.048-8.4V88.3q0-6.564-2.763-9.171t-9.456-2.607a37.923,37.923,0,0,0-9.6,1.014,17.657,17.657,0,0,0-4.849,1.786,2.887,2.887,0,0,0-1.018,1.5,5.937,5.937,0,0,0-.34,1.882A18.121,18.121,0,0,0,665.938,85.6Zm16.875,22.2v3.572q0,1.739-.049,3.234t-0.145,2.269a3.032,3.032,0,0,1-1.212.724,4.46,4.46,0,0,1-1.407.241,2.422,2.422,0,0,1-2.473-1.5,13.957,13.957,0,0,1-.63-4.972q0-4.633.873-6.178a2.752,2.752,0,0,1,2.521-1.545,6.745,6.745,0,0,1,1.31.145,2.325,2.325,0,0,1,1.212.627V107.8Zm34.206,17.957q4.168,0,6.352-.049a29.481,29.481,0,0,0,3.2-.193,1.383,1.383,0,0,0,1.163-.531,3.464,3.464,0,0,0,.146-1.158V86.853a7.215,7.215,0,0,1,3.588-.869,2.5,2.5,0,0,1,2.231.869,5.908,5.908,0,0,1,.581,3.089v35.817q3.878,0,6.11-.049a29.991,29.991,0,0,0,3.249-.193,1.764,1.764,0,0,0,1.261-.531,2.221,2.221,0,0,0,.242-1.158V89.653A41.157,41.157,0,0,0,744.8,84.1a9.926,9.926,0,0,0-1.455-4.151,6.85,6.85,0,0,0-3.3-2.558,16.222,16.222,0,0,0-5.868-.869,27.216,27.216,0,0,0-5.867.676,27.638,27.638,0,0,0-5.576,1.834,12.165,12.165,0,0,0-8.049-2.51,35.765,35.765,0,0,0-8.244.917,33.142,33.142,0,0,0-6.691,2.269v46.05q3.975,0,6.158-.049a31.23,31.23,0,0,0,3.249-.193,1.632,1.632,0,0,0,1.26-.531,2.673,2.673,0,0,0,.194-1.158V86.95a8.8,8.8,0,0,1,1.746-.821,5.868,5.868,0,0,1,1.94-.338,2.714,2.714,0,0,1,2.182.676,5.72,5.72,0,0,1,.533,3.089v36.2Z"/>
  <path id="Dr._joaquin_Farias_" data-name="Dr. joaquin Farias’" class="cls-1" d="M2.957,3.919a1.473,1.473,0,0,0-.937.21,0.741,0.741,0,0,0-.234.583V36.552H7.452a9.088,9.088,0,0,0,3.676-.746,6.688,6.688,0,0,0,2.95-2.75,16.9,16.9,0,0,0,1.944-5.524,47.49,47.49,0,0,0,.7-9.021,34.1,34.1,0,0,0-.585-6.853,13,13,0,0,0-1.709-4.5A6.633,6.633,0,0,0,11.6,4.688,9.561,9.561,0,0,0,7.64,3.919H2.957ZM13.377,26.6a16.565,16.565,0,0,1-1.428,4.778,4.585,4.585,0,0,1-2.061,2.191,5.893,5.893,0,0,1-2.388.513H4.362V6.3H7.593a5.894,5.894,0,0,1,2.786.629,4.974,4.974,0,0,1,1.99,2.051,11.435,11.435,0,0,1,1.171,3.706,35.7,35.7,0,0,1,.375,5.641A50.514,50.514,0,0,1,13.377,26.6Zm8.308,9.953h1.452a2.878,2.878,0,0,0,.749-0.07,0.4,0.4,0,0,0,.281-0.187,1,1,0,0,0,.047-0.35V22.753h3.278a2.63,2.63,0,0,0,.515-0.047q0.374,0.514,1.007,1.538a18.482,18.482,0,0,1,1.311,2.7A32.471,32.471,0,0,1,31.613,31a38.689,38.689,0,0,1,.937,5.548c0.312,0.031.585,0.047,0.82,0.047H34a2.811,2.811,0,0,0,1.1-.186,0.551,0.551,0,0,0,.164-0.559,29.865,29.865,0,0,0-.82-5.035,30.955,30.955,0,0,0-1.288-3.939,22.971,22.971,0,0,0-1.4-2.89,17.322,17.322,0,0,0-1.218-1.841,7.192,7.192,0,0,0,3.536-3.17,12.492,12.492,0,0,0,1.288-6.2,10.114,10.114,0,0,0-1.9-6.48q-1.9-2.378-6.3-2.378h-4.87a0.4,0.4,0,0,0-.328.117,2.6,2.6,0,0,1-.187.21,0.743,0.743,0,0,0-.094.326V36.552Zm5.479-16.223h-2.95V6.249H27.4a5.556,5.556,0,0,1,2.482.489,4.21,4.21,0,0,1,1.592,1.352,5.289,5.289,0,0,1,.843,2.028,13.057,13.057,0,0,1,.234,2.564q0,7.646-5.386,7.645h0Zm11.971,15.9a1.837,1.837,0,0,0,1.522.559,1.948,1.948,0,0,0,1.5-.606,2.111,2.111,0,0,0,.562-1.492,2.27,2.27,0,0,0-.492-1.515,1.944,1.944,0,0,0-1.569-.583,1.77,1.77,0,0,0-1.452.629,2.246,2.246,0,0,0-.515,1.468A2.406,2.406,0,0,0,39.134,36.225Zm22.208-8.251q0,1.4-.094,2.611a7.5,7.5,0,0,1-.445,2.121,3.023,3.023,0,0,1-1.077,1.422,3.394,3.394,0,0,1-1.99.513,5.127,5.127,0,0,1-2.271-.489A5.6,5.6,0,0,1,53.8,32.962a3.035,3.035,0,0,0-.328.676,2.718,2.718,0,0,0-.141.909,2.154,2.154,0,0,0,1.147,1.678,6.292,6.292,0,0,0,3.536.792,5.807,5.807,0,0,0,3.114-.723,5.042,5.042,0,0,0,1.78-1.888,7.472,7.472,0,0,0,.82-2.657,24.389,24.389,0,0,0,.187-3.03V3.919q-0.983,0-1.5.023a2.006,2.006,0,0,0-.749.14,0.5,0.5,0,0,0-.281.373,4.255,4.255,0,0,0-.047.723v22.8Zm7.906,0.256a17.2,17.2,0,0,0,1.5,5.245,5.937,5.937,0,0,0,2.623,2.751,8.7,8.7,0,0,0,3.864.792,8.454,8.454,0,0,0,3.981-.886,6.7,6.7,0,0,0,2.763-2.914,17.063,17.063,0,0,0,1.592-5.291,52.245,52.245,0,0,0,.515-7.972,57.256,57.256,0,0,0-.445-7.809,16.425,16.425,0,0,0-1.428-5.081,6.151,6.151,0,0,0-2.576-2.774,8.254,8.254,0,0,0-3.887-.839,8.346,8.346,0,0,0-3.934.886A7.061,7.061,0,0,0,71,7.182a15.957,15.957,0,0,0-1.686,5.128A44.905,44.905,0,0,0,68.757,20,57.124,57.124,0,0,0,69.248,28.23Zm2.74-14.312a18.484,18.484,0,0,1,1.1-4.569,5.41,5.41,0,0,1,1.873-2.517A5.151,5.151,0,0,1,80.3,6.786,4.886,4.886,0,0,1,82.057,9.14a16.921,16.921,0,0,1,.96,4.266,58.19,58.19,0,0,1,.3,6.5,58.111,58.111,0,0,1-.328,6.713A16.9,16.9,0,0,1,81.94,31.1a5.424,5.424,0,0,1-1.873,2.494,4.806,4.806,0,0,1-2.74.769,4.707,4.707,0,0,1-2.646-.723,5,5,0,0,1-1.78-2.354,15.978,15.978,0,0,1-.984-4.2,54.558,54.558,0,0,1-.3-6.294A53.277,53.277,0,0,1,71.988,13.918Zm32.355,22.633c0.344,0.031.648,0.047,0.914,0.047h0.632a2.061,2.061,0,0,0,.96-0.14,0.434,0.434,0,0,0,.117-0.513L98.115,3.872a3.671,3.671,0,0,0-1.124-.14q-0.843,0-.89.42L87.25,36.505a5.323,5.323,0,0,0,.937.093h0.656a3.026,3.026,0,0,0,.937-0.093,0.615,0.615,0,0,0,.328-0.466l2.154-8.485H102Zm-9.225-20q0.374-1.351.7-2.727t0.609-2.587q0.281-1.212.445-2.191t0.257-1.632a14.347,14.347,0,0,0,.234,1.632q0.187,0.979.445,2.191T98.4,13.825q0.327,1.376.7,2.727l2.248,8.625H92.87Zm13.974,11.468A17.268,17.268,0,0,0,110.5,33.2a6.535,6.535,0,0,0,2.435,2.844,7.513,7.513,0,0,0,3.583.979,9.81,9.81,0,0,0,1.943,4.429,4.323,4.323,0,0,0,3.348,1.352,10.392,10.392,0,0,0,1.359-.093,5.829,5.829,0,0,0,1.264-.3,3.777,3.777,0,0,0,.937-0.489,0.844,0.844,0,0,0,.374-0.7,3.345,3.345,0,0,0-.093-0.7,1.627,1.627,0,0,0-.328-0.7,5.776,5.776,0,0,1-3.044.793,2.214,2.214,0,0,1-1.827-.816,7.033,7.033,0,0,1-1.03-3.053,6.725,6.725,0,0,0,2.927-1.538,8.4,8.4,0,0,0,2.061-3.147,20.3,20.3,0,0,0,1.194-5.011,57.983,57.983,0,0,0,.374-7.086,57.338,57.338,0,0,0-.444-7.809A16.441,16.441,0,0,0,124.1,7.065a6.148,6.148,0,0,0-2.576-2.774,8.25,8.25,0,0,0-3.887-.839,8.344,8.344,0,0,0-3.933.886,7.058,7.058,0,0,0-2.81,2.844,15.947,15.947,0,0,0-1.686,5.128A44.865,44.865,0,0,0,108.647,20,60.038,60.038,0,0,0,109.092,28.021Zm2.786-14.1a18.478,18.478,0,0,1,1.1-4.569,5.408,5.408,0,0,1,1.873-2.517,5.151,5.151,0,0,1,5.339-.047,4.889,4.889,0,0,1,1.756,2.354,16.9,16.9,0,0,1,.96,4.266,58.105,58.105,0,0,1,.3,6.5,58.156,58.156,0,0,1-.327,6.713A16.9,16.9,0,0,1,121.83,31.1a5.431,5.431,0,0,1-1.873,2.494,4.809,4.809,0,0,1-2.74.769,4.708,4.708,0,0,1-2.646-.723,5,5,0,0,1-1.78-2.354,15.992,15.992,0,0,1-.983-4.2,54.659,54.659,0,0,1-.3-6.294A53.345,53.345,0,0,1,111.878,13.918Zm21.462-10h-1.522a2.993,2.993,0,0,0-.772.07,0.375,0.375,0,0,0-.281.21,1.185,1.185,0,0,0-.047.373V26.529a32.8,32.8,0,0,0,.234,4.009,8.04,8.04,0,0,0,1.124,3.333,6.4,6.4,0,0,0,2.552,2.284,10.027,10.027,0,0,0,4.566.862,20.75,20.75,0,0,0,4.754-.513,10.541,10.541,0,0,0,3.114-1.119V3.919h-1.475a3.291,3.291,0,0,0-.8.07,0.427,0.427,0,0,0-.305.186,1,1,0,0,0-.047.35v29.09a8.571,8.571,0,0,1-2.177.676,15.189,15.189,0,0,1-3.068.3,6.645,6.645,0,0,1-3.137-.629,4.205,4.205,0,0,1-1.757-1.7,7.138,7.138,0,0,1-.772-2.541,24.484,24.484,0,0,1-.188-3.1V3.919Zm18.606,32.633h1.5a3.172,3.172,0,0,0,.773-0.07,0.43,0.43,0,0,0,.3-0.187,1.018,1.018,0,0,0,.046-0.35V3.919q-0.936,0-1.475.023a2.3,2.3,0,0,0-.8.14,0.5,0.5,0,0,0-.3.4,4.625,4.625,0,0,0-.047.746V36.552Zm21.84,0h1.78a0.537,0.537,0,0,0,.608-0.606V3.919H174.7a3,3,0,0,0-.773.07,0.375,0.375,0,0,0-.28.21,1.185,1.185,0,0,0-.047.373V17q0,1.1.023,2.634t0.024,3.31q0,1.772.023,3.45t0.07,3.053q0.047,1.376.094,2.075-0.375-.885-0.89-2.214t-1.124-2.844q-0.609-1.514-1.218-3.077t-1.147-2.914q-0.538-1.351-.913-2.331t-0.515-1.352l-5.62-12.867H160.58a0.558,0.558,0,0,0-.609.653V36.552h1.452a2.878,2.878,0,0,0,.749-0.07,0.4,0.4,0,0,0,.281-0.187,0.99,0.99,0,0,0,.047-0.35V23.265q0-1.025-.024-2.471t-0.047-3.17q-0.024-1.724-.046-3.38t-0.047-3.077q-0.024-1.421-.024-2.308,0.375,0.979.914,2.354t1.123,2.89q0.587,1.516,1.2,3.054t1.1,2.844q0.492,1.306.867,2.214t0.515,1.235Zm17.5,0a0.472,0.472,0,0,0,.515-0.28,1.034,1.034,0,0,0,.047-0.326V19.909h7.681a0.467,0.467,0,0,0,.491-0.466,16.625,16.625,0,0,0,.071-1.958h-8.243V6.2h8.805a0.373,0.373,0,0,0,.421-0.35q0.047-.35.047-1.935H189.926a0.4,0.4,0,0,0-.328.117,2.653,2.653,0,0,1-.187.21,0.743,0.743,0,0,0-.094.326V36.552h1.967Zm24.752,0q0.514,0.046.914,0.047h0.632a2.061,2.061,0,0,0,.96-0.14,0.434,0.434,0,0,0,.117-0.513L209.808,3.872a3.672,3.672,0,0,0-1.124-.14q-0.843,0-.89.42l-8.851,32.353a5.324,5.324,0,0,0,.937.093h0.655a3.032,3.032,0,0,0,.937-0.093,0.615,0.615,0,0,0,.328-0.466l2.154-8.485H213.7Zm-9.225-20q0.374-1.351.7-2.727t0.609-2.587q0.28-1.212.445-2.191t0.257-1.632a14.408,14.408,0,0,0,.234,1.632q0.188,0.979.445,2.191t0.586,2.587q0.327,1.376.7,2.727l2.248,8.625h-8.476Zm14.325,20h1.452a2.878,2.878,0,0,0,.749-0.07,0.4,0.4,0,0,0,.281-0.187,0.99,0.99,0,0,0,.047-0.35V22.753h3.278a2.626,2.626,0,0,0,.515-0.047q0.375,0.514,1.007,1.538a18.444,18.444,0,0,1,1.311,2.7A32.32,32.32,0,0,1,231.064,31,38.63,38.63,0,0,1,232,36.552q0.468,0.046.819,0.047h0.633a2.809,2.809,0,0,0,1.1-.186,0.549,0.549,0,0,0,.164-0.559,29.8,29.8,0,0,0-.82-5.035,30.883,30.883,0,0,0-1.287-3.939,23.109,23.109,0,0,0-1.405-2.89,17.44,17.44,0,0,0-1.218-1.841,7.191,7.191,0,0,0,3.536-3.17,12.5,12.5,0,0,0,1.288-6.2,10.117,10.117,0,0,0-1.9-6.48q-1.9-2.378-6.3-2.378h-4.87a0.4,0.4,0,0,0-.328.117,2.653,2.653,0,0,1-.187.21,0.743,0.743,0,0,0-.094.326V36.552Zm5.479-16.223h-2.95V6.249h3.184a5.553,5.553,0,0,1,2.482.489,4.209,4.209,0,0,1,1.593,1.352,5.3,5.3,0,0,1,.843,2.028A13.05,13.05,0,0,1,232,12.683q0,7.646-5.386,7.645h0Zm11.76,16.223h1.5a3.168,3.168,0,0,0,.772-0.07,0.427,0.427,0,0,0,.305-0.187,1.014,1.014,0,0,0,.047-0.35V3.919q-0.937,0-1.476.023a2.3,2.3,0,0,0-.8.14,0.5,0.5,0,0,0-.3.4,4.625,4.625,0,0,0-.047.746V36.552Zm22.87,0c0.344,0.031.648,0.047,0.914,0.047h0.632a2.061,2.061,0,0,0,.96-0.14,0.434,0.434,0,0,0,.117-0.513L255.017,3.872a3.672,3.672,0,0,0-1.124-.14q-0.843,0-.89.42l-8.851,32.353a5.324,5.324,0,0,0,.937.093h0.655a3.028,3.028,0,0,0,.937-0.093,0.615,0.615,0,0,0,.328-0.466l2.154-8.485H258.9Zm-9.225-20q0.374-1.351.7-2.727t0.609-2.587q0.281-1.212.445-2.191t0.257-1.632a14.216,14.216,0,0,0,.235,1.632q0.186,0.979.444,2.191t0.586,2.587q0.327,1.376.7,2.727l2.248,8.625h-8.476ZM267.446,5.224a5.725,5.725,0,0,0-2.038,4.522,7.081,7.081,0,0,0,.8,3.31,16.261,16.261,0,0,0,2.388,3.31l5.058,5.268a18.851,18.851,0,0,1,1.569,1.841,9.382,9.382,0,0,1,1.006,1.7,7.716,7.716,0,0,1,.539,1.7,9.886,9.886,0,0,1,.164,1.842,6.3,6.3,0,0,1-1.288,4.1q-1.289,1.585-4.332,1.585a9.019,9.019,0,0,1-3.255-.489,6.24,6.24,0,0,1-1.99-1.189,2.419,2.419,0,0,0-.562.862,2.663,2.663,0,0,0-.187.956,1.267,1.267,0,0,0,.351.792,3.354,3.354,0,0,0,1.124.793,8.932,8.932,0,0,0,1.92.629,13,13,0,0,0,2.786.256,9.623,9.623,0,0,0,3.747-.653,6.72,6.72,0,0,0,2.529-1.795,7.045,7.045,0,0,0,1.428-2.7,12.277,12.277,0,0,0,.445-3.38,11.32,11.32,0,0,0-.7-4.1,12.648,12.648,0,0,0-2.67-3.916L270.7,14.734a17.891,17.891,0,0,1-1.85-2.424,4.834,4.834,0,0,1-.725-2.611,3.365,3.365,0,0,1,1.451-2.844,6.4,6.4,0,0,1,3.887-1.072,10.307,10.307,0,0,1,3.161.42,6.723,6.723,0,0,1,1.85.839,2.132,2.132,0,0,0,.7-1.538q0-.792-1.382-1.422a11.749,11.749,0,0,0-4.519-.629A8.621,8.621,0,0,0,267.446,5.224Zm16.466-1.538q-0.048,1.073-.234,2.517a8.527,8.527,0,0,1-.843,2.751,0.984,0.984,0,0,0,.4.629,1.167,1.167,0,0,0,.679.21,1.41,1.41,0,0,0,.773-0.769,10.791,10.791,0,0,0,.936-1.935,24.508,24.508,0,0,0,.8-2.494,9.64,9.64,0,0,0,.352-2.447,2.375,2.375,0,0,0-.516-1.725,1.906,1.906,0,0,0-1.4-.513,1.759,1.759,0,0,0-1.358.559,1.922,1.922,0,0,0-.515,1.352,2,2,0,0,0,.937,1.865h0Z"/>
</svg>
