<svg xmlns="http://www.w3.org/2000/svg" viewBox="0 0 749.9 91.6"><title>ltj</title><g id="Layer_2" data-name="Layer 2"><g id="Layer_1-2" data-name="Layer 1"><path d="M0,88.7V1.9H18.7V72.6H63.2V88.8H0Z" style="fill:#fff"/><path d="M77.6,18.5H50V2.6h74.4V18.8H97V89.7H77.8V18.6h-.2Z" style="fill:#fff"/><path d="M164.2,62c0,11.2-3,29.6-29.1,29.6-9.7,0-18.9-3.5-24.4-11.4-3-4-4.2-10.2-4.2-12.4l17.7-3c0,6.5,1.7,10.9,10.7,10.9,10.2,0,10.2-8,10.2-14.2V2.8h19.2V62Z" style="fill:#fff"/><path d="M234.3,73.2V89.4H215.9V2.1h63.4V18.3h-45V37.9h39.8V54.8H234.3Z" style="fill:#fff"/><path d="M275.4,89.4,315,2.6h19.2L373,89.4H354.6l-8.5-19.2h-44l-9.2,19.2Zm49.2-70.6L309.9,52.4h28.9L324.6,18.8Z" style="fill:#fff"/><path d="M381.9,2.3h41c16.7,0,27.9,5.5,27.9,21.6,0,8.7-4,14.4-11.9,18.2,10.7,3,15.9,11.2,15.9,22.1,0,17.7-14.9,25.1-30.6,25.1H381.9V2.3ZM401,37.7h19.4c6.7,0,11.7-3,11.7-10.4,0-8.2-6.2-10-13.2-10H401V37.7Zm0,36.8h20.4c7.5,0,14.2-2.5,14.2-11.4s-5.5-12.4-13.7-12.4H401V74.5Z" style="fill:#fff"/><path d="M517.4,57.1l24.4,32.3H518.4L496.5,58.1H487V89.4H467.6V2.3h39.3c21.9,0,30.4,13.7,30.4,27.9,0,11.9-6.2,23.9-20.6,26.9ZM487.1,17.3V43.4H502c9.2,0,16.7-2,16.7-13.2,0-11.4-7.5-12.9-16.7-12.9Z" style="fill:#fff"/><path d="M555.8,2.3H575V89.4H555.8Z" style="fill:#fff"/><path d="M631.1,89.7a44,44,0,1,1,38.3-65.4c-7.5,4-8,4.2-16.4,8.2a24.8,24.8,0,0,0-21.9-12.4,25.9,25.9,0,1,0,0,51.8,25.41,25.41,0,0,0,22.6-13.4c8.2,4.2,8.5,4.7,16.4,8.2A44,44,0,0,1,631.1,89.7Z" style="fill:#fff"/><path d="M695.1,63.5c2,11.4,12.2,12.9,19.2,12.9,6.7,0,16.9-2,16.9-10.9,0-18.4-51.7-6.5-51.7-39.1C679.5,8.5,696.4,0,712.1,0c18.2,0,34.8,8,34.8,28.1l-18.4-2.7C726.3,15.2,717.3,15,711.3,15c-6.2,0-13.2,2.5-13.2,10,0,6.5,4.2,8,25.9,13.2,6.5,1.5,25.9,5.7,25.9,25.4,0,15.9-12.4,27.9-36.3,27.9-19.4,0-37.1-9.5-37.1-30.8Z" style="fill:#fff"/></g></g></svg>