<svg xmlns="http://www.w3.org/2000/svg" viewBox="0 0 214.4 191.06"><title>magbit</title><g id="Layer_2" data-name="Layer 2"><g id="Layer_1-2" data-name="Layer 1"><path d="M76.9,91.8c1-8.2,1.9-7.3,2.5-25.1s-23.3-21-27.9-22-10.7-2.3-12-8.4,12-15.3,9.2-14.7c-10,2-17.4,9.4-18.6,21.6S42.7,63.7,42.7,63.7C36.8,69.8,32.6,75.2,32,85.1s9.9,20.3,10.1,27.7-8.8,16.3-8.8,16.3a209.49,209.49,0,0,1,25.6.2c12.6,1,18.6,6.1,18.4,5.7C74.3,129,75.9,100,76.9,91.8Zm-6.7,13.9-22.6-.6V67C79.9,69.4,70.2,105.7,70.2,105.7Z" style="fill:#fff"/><circle cx="84.4" cy="9.8" r="3.9" style="fill:#fff"/><path d="M84.3,16.4s-.4,5.5,1.5,7.8S98,31.3,98.2,39.3s-6.1,17.8-6.7,25.4a47.16,47.16,0,0,0,1.9,19.1c1.9,6.3-1.7,28.3-16.1,43,0,0,1.9-14.7,2.1-22s-1.1-16.6,6.3-30.6c0,0,2.5-3.1,2.9-16.1.2-6.9-14.9-6.5-14.3-16.1.7-10.9,4-12.8,5.7-15.7C82.2,23.1,84.3,16.4,84.3,16.4Z" style="fill:#fff"/><path d="M142.5,1.1a40.08,40.08,0,0,1,0,13.6c-1.3,7.3-1.3,11.9-4.4,14.7s-4.4,3.1-17.4,1.9-18,3.3-20.3,9.2S94.5,57.3,95.2,64s3.3,12.4,8.2,14.5,17.2,2.9,14.7,15.1-2.7,15.3-12.4,20.5S85,123.3,80.6,131.9s-2.1,13.4-1.9,15.9,5.2,14.7,6.1,14.7,6.1-14.5,6.9-18.2,0-10.7-.8-13.6.8-6.3,5-7.5,18.4-7.1,21.6-13,7.1-25.8,6.1-36.1-6.1-14.3-14.5-15.5-11.5-1.1-9-10.3,8-12.8,9.2-13.2,9.2-.8,15.1,0,13.4,3.3,20.1,1.3,11.2-8,14-13.8a38.67,38.67,0,0,0,4-19.3L155.8,14S154.7-.2,153.1,0s-3.1,10.9-3.6,10.9C149,11.1,145.9,1.3,142.5,1.1Z" style="fill:#fff"/><path d="M136.7,40.9c.9-.2-.2,3.6,4.2,7.1s10.1,5.5,9.4,12.4-7.8,24.5-8.8,24.5-4.2-6.7-4.2-6.7-2.5,7.6-2.7,10.7-1.1,11.9-.4,11.9,21.2-33.7,21.2-33.7-3.8-7.8-4-9.9,5-10.1,6.7-14.2,2.1-8.8,2.9-8.8,1.9,6.7,3.3,7.7,11.3,7.1,11.1,14-1.3,6.3-4,10.7-7.5,12.8-8,12.8-2.7-9.4-4.4-9.2-21.6,34.6-21.6,34.6-3.3,4.2,6.7,6.7,13.8,2.3,17.4,1,9.9-10.5,9.9-16.8c0-.6-8-7.7-7.8-10.9s7.7-14.9,9.4-17.6a63.18,63.18,0,0,0,5.7-10.7c1.3-3.6,1-4.2,1.7-4s.2,8.4,1,9.8.2,2.1,3.1,5.7,5.7,8.8,5.5,11.5-3.1,8.2-7.5,11.9-12.6,15.5-15.1,21-6.5,15.1-6.1,19.5.2,5.2-6.1,2.7-9.9-3.8-9.9-3.8.8,2.5-.4,2.7a18.9,18.9,0,0,1-4.2-.4s0,4.6-3.8,4.4-3.3-3.6-3.4-4.4-2.5-2.3-2.5-2.3l10.5-.8s-9.4-.8-15.5.2-12.2,1.3-12.2,1.3,9.9-9.2,11.5-14.5-1.7-9.4-2.7-12.8-1-13.6,2.7-18.2,9-10.5,9-10.5-8.2-5.5-8.2-13,5.7-8.2,7.8-13C135.8,44.5,136,41.1,136.7,40.9Z" style="fill:#fff"/><path d="M15.2,88.1l.8,7.1L7.1,99l9.5,1.7.8,7.1L2.2,109.5,1.7,105l11.6-1.3-12-2.1-.4-4,11.2-4.7L.5,94.2,0,89.8Z" style="fill:#fff"/><path d="M9.9,124.4l-2.1-5.8H5.1l-1.9-5.2,16.6,1,2,5.6L9.7,131.4l-1.9-5.3Zm2.7-2.2,4.5-3.7-5.8.1Z" style="fill:#fff"/><path d="M20.9,139.1l2.7-1.7,4.5,7.1L22.6,148a13.87,13.87,0,0,1-3.9-2.6,16.39,16.39,0,0,1-2.8-3.4,11.37,11.37,0,0,1-1.9-4.8,6.55,6.55,0,0,1,.7-4.1,7.63,7.63,0,0,1,3-3.2,7.72,7.72,0,0,1,4.3-1.3,7.29,7.29,0,0,1,4.2,1.4,12.16,12.16,0,0,1,3.2,3.7,13.51,13.51,0,0,1,1.9,3.9,5.36,5.36,0,0,1,.1,2.8,5.49,5.49,0,0,1-1.3,2.5l-3.5-4a2.35,2.35,0,0,0,.5-1.6,3.2,3.2,0,0,0-.7-1.9,3.57,3.57,0,0,0-2.4-1.8,4.74,4.74,0,0,0-3.4.9,4.74,4.74,0,0,0-2.4,2.8,4.08,4.08,0,0,0,.7,3.1,7.55,7.55,0,0,0,1.1,1.4,8.31,8.31,0,0,0,1.7,1.2l1.2-.8Z" style="fill:#fff"/><path d="M35.1,142.6l7.1,7.3a6.58,6.58,0,0,1,2,3.6,3.38,3.38,0,0,1-1,2.9,3.17,3.17,0,0,1-2.3.9,4.83,4.83,0,0,1-2.1-.6,5.58,5.58,0,0,1,1,2.9,3,3,0,0,1-1.1,2.3,3.21,3.21,0,0,1-2,1,4.62,4.62,0,0,1-2.3-.2,6.19,6.19,0,0,1-1.8-1.1c-1-.8-1.6-1.3-1.9-1.6l-6.6-6.7Zm-4.7,12.3,1.9,2A3.42,3.42,0,0,0,34,158a1.29,1.29,0,0,0,1.2-.4,1.59,1.59,0,0,0,.4-1.2,3.42,3.42,0,0,0-1.1-1.7l-1.9-2Zm4.2-4.2,1.7,1.7a3.49,3.49,0,0,0,1.5,1,1.19,1.19,0,0,0,1.1-.4,1.5,1.5,0,0,0,.4-1.1,3.49,3.49,0,0,0-1-1.5l-1.7-1.7Z" style="fill:#fff"/><path d="M48.5,155.4l4.3,3.3-9.2,12.2-4.3-3.3Z" style="fill:#fff"/><path d="M54.3,160.1l14.5,8L67,171.4l-4.8-2.7-5.5,10.1-4.8-2.6,5.5-10.1-4.8-2.7Z" style="fill:#fff"/><path d="M77.7,171.3l13,3.3-.8,3.2-7.7-1.9-.6,2.6,6.6,1.7-.8,3-6.6-1.7-1.5,6.1L74,186.3Z" style="fill:#fff"/><path d="M91.6,182.6a7.5,7.5,0,0,1,2.8-5.7c1.7-1.3,4-1.8,6.8-1.7s5.1,1,6.6,2.5a7,7,0,0,1,2,5.9,8.75,8.75,0,0,1-1.3,4.3,7.34,7.34,0,0,1-3.2,2.5,10.66,10.66,0,0,1-4.9.6,13.14,13.14,0,0,1-4.9-1.1,6.78,6.78,0,0,1-3-2.8A7.91,7.91,0,0,1,91.6,182.6Zm5.4.4a4.79,4.79,0,0,0,.8,3.4,3.76,3.76,0,0,0,2.6,1.2,3.62,3.62,0,0,0,2.8-.8c.7-.6,1.1-1.8,1.2-3.5a4.38,4.38,0,0,0-.8-3.2,3.76,3.76,0,0,0-2.6-1.2,3.51,3.51,0,0,0-2.7.8C97.5,180.3,97.1,181.4,97,183Z" style="fill:#fff"/><path d="M123.6,174.4l5.4-.7,1.2,9a7.48,7.48,0,0,1-.1,2.6,5.67,5.67,0,0,1-1.2,2.3,5.54,5.54,0,0,1-2,1.5,11.66,11.66,0,0,1-3.7,1,23,23,0,0,1-2.8.2,9.78,9.78,0,0,1-2.6-.3,5.64,5.64,0,0,1-2-1.1,5.21,5.21,0,0,1-1.4-1.6,6.59,6.59,0,0,1-.8-2.5l-1.2-9,5.4-.7,1.3,9.2a2.45,2.45,0,0,0,1.1,1.8,3.43,3.43,0,0,0,2.3.4,3.47,3.47,0,0,0,2.1-1,2.41,2.41,0,0,0,.5-2.1Z" style="fill:#fff"/><path d="M131.5,173.1l4.8-1.7,9,5.7-2.8-8,4.8-1.7,5.1,14.4-4.8,1.7-9-5.7,2.8,7.9-4.8,1.7Z" style="fill:#fff"/><path d="M149.7,166.2l6.9-4.2a12.58,12.58,0,0,1,3.6-1.5,7,7,0,0,1,2.9.1,7,7,0,0,1,2.5,1.4,8.65,8.65,0,0,1,1.9,2.3,9.75,9.75,0,0,1,1.4,3.6,5.86,5.86,0,0,1-.4,2.9,5.13,5.13,0,0,1-1.5,2.3,11.34,11.34,0,0,1-2.6,2l-6.9,4.2Zm6.5.2,4.3,7.1,1.1-.7a6.81,6.81,0,0,0,1.9-1.5,2.73,2.73,0,0,0,.4-1.6,8.45,8.45,0,0,0-1-2.5,4.65,4.65,0,0,0-2.5-2.4,4.25,4.25,0,0,0-3,.8Z" style="fill:#fff"/><path d="M180.8,159.5l-4.6,4.1,1,2.5-4.1,3.7L167.8,154l4.4-4,15.1,7-4.2,3.8Zm-3-1.7-5.1-2.8,2.2,5.4Z" style="fill:#fff"/><path d="M175.8,147.1l10.1-13,3,2.3-3.4,4.4,9.1,7.1-3.3,4.3-9.1-7.1-3.4,4.4Z" style="fill:#fff"/><path d="M186.6,132.2l2.7-4.7,13.3,7.5-2.7,4.7Z" style="fill:#fff"/><path d="M198,128a7.34,7.34,0,0,1-4.7-4.2,9.53,9.53,0,0,1,.3-7,10.34,10.34,0,0,1,4.2-5.7,7.37,7.37,0,0,1,6.2-.3,8.17,8.17,0,0,1,3.8,2.5,7.65,7.65,0,0,1,1.5,3.7,10.06,10.06,0,0,1-.8,4.9,15,15,0,0,1-2.4,4.4,7.84,7.84,0,0,1-3.5,2.1A7.48,7.48,0,0,1,198,128Zm1.9-5.1a4.82,4.82,0,0,0,3.5.2,3.52,3.52,0,0,0,1.9-2.2,3.63,3.63,0,0,0,0-2.9,5.25,5.25,0,0,0-3-2.1,4.21,4.21,0,0,0-3.3-.1,3.83,3.83,0,0,0-1.9,2.2,3.39,3.39,0,0,0,.1,2.8Q197.65,122.15,199.9,122.9Z" style="fill:#fff"/><path d="M197.3,106.5l.6-5.1,9.1-5.6-8.4-.9.6-5.1,15.2,1.7-.6,5.1-9.1,5.6,8.3.9-.6,5.1Z" style="fill:#fff"/></g></g></svg>