<?xml version="1.0" encoding="utf-8"?>
<!-- Generator: Adobe Illustrator 22.0.1, SVG Export Plug-In . SVG Version: 6.00 Build 0)  -->
<svg version="1.1" id="Layer_1" xmlns="http://www.w3.org/2000/svg" xmlns:xlink="http://www.w3.org/1999/xlink" x="0px" y="0px"
	 viewBox="0 0 483.8 419.1" style="enable-background:new 0 0 483.8 419.1;" xml:space="preserve">
<style type="text/css">
	.st0{fill:#FFFFFF;}
</style>
<g>
	<path class="st0" d="M100.5,148.6h45.3c17.3,0,32,10.2,32,32.3c0,19.9-14.7,31.8-32,31.8h-17.8v20.7h-27.4V148.6z M127.9,189h13.5
		c4.7,0,8.1-3.6,8.1-8.4c0-4.6-3.4-8.4-8.1-8.4h-13.5V189z"/>
</g>
<g>
	<path class="st0" d="M314.8,204.5c7,4.7,16.5,8.7,26.3,8.7c5.1,0,8.1-1.6,8.1-5.4c0-2.1-2.1-3.6-5.5-4.6l-13.3-4.1
		c-13.8-4.2-21.4-11.1-21.4-23.9c0-15.3,12.3-27.3,35.2-27.3c12,0,24.2,3.5,30.9,6.7l-7.6,21.9c-7.1-3.9-16.7-6.9-24.6-6.9
		c-4.5,0-6.5,1.6-6.5,4.4c0,1.9,1.1,3,4.7,4.1l14.1,4.2c16.1,4.9,21.7,12.7,21.7,23.8c0,16.7-13.7,28.8-36.3,28.8
		c-12.8,0-26.4-4.2-32.2-7.4L314.8,204.5z"/>
</g>
<g>
	<path class="st0" d="M228,262.8v34.3c0,6.2,5.1,11.2,11.2,11.2h2.7c6.2,0,11.2-5.1,11.2-11.2v-34.3c-3.9,1.7-8.1,2.6-12.6,2.6
		C236.1,265.4,231.9,264.4,228,262.8z"/>
	<path class="st0" d="M272.1,233.9c0-12.4-7.2-23.1-17.6-28.3v28.3h-27.4v-28.5c-10.6,5.1-18,15.9-18,28.5c0,12.9,7.8,24,18.9,28.9
		c3.9,1.7,8.1,2.6,12.6,2.6c4.5,0,8.8-0.9,12.6-2.6C264.4,257.9,272.1,246.8,272.1,233.9z"/>
</g>
<g>
	<path class="st0" d="M254.1,119.9V85.6c0-6.2-5.1-11.2-11.2-11.2h-2.7c-6.2,0-11.2,5.1-11.2,11.2V120c3.9-1.7,8.1-2.6,12.6-2.6
		C246,117.3,250.2,118.2,254.1,119.9z"/>
	<path class="st0" d="M210,148.8c0,12.4,7.2,23.1,17.6,28.3v-28.3H255v28.5c10.6-5.1,18-15.9,18-28.5c0-12.9-7.8-24-18.9-28.9
		c-3.9-1.7-8.1-2.6-12.6-2.6c-4.5,0-8.8,0.9-12.6,2.6C217.8,124.8,210,135.9,210,148.8z"/>
</g>
</svg>
