<?xml version="1.0" encoding="utf-8"?>
<!-- Generator: Adobe Illustrator 22.0.1, SVG Export Plug-In . SVG Version: 6.00 Build 0)  -->
<svg version="1.1" id="Layer_1" xmlns="http://www.w3.org/2000/svg" xmlns:xlink="http://www.w3.org/1999/xlink" x="0px" y="0px"
	 viewBox="0 0 347.3 246" style="enable-background:new 0 0 347.3 246;" xml:space="preserve">
<style type="text/css">
	.st0{fill:#FFFFFF;}
</style>
<g>
	<path class="st0" d="M80.4,131.1V81.3c0-7.1-5-8.2-7.9-8.8h22.5v58.7c0,7.2,4.4,8.9,7.3,9.6H73.2C76.2,140,80.4,138.2,80.4,131.1z
		 M101.2,110.9c4.4,3.4,11.3,3.9,18.4,3.8l12.5,18.5c3.5,5.2,6.7,6.9,9,7.5h-19.5L101.2,110.9z M103,107.5c8.9-1.3,14.3-8,14.3-17.4
		s-5.4-16-13.5-17.7c18.7,0.3,29.1,5.7,29.1,17c0,11.5-10.8,18.1-28.2,18.1C104.1,107.6,103.5,107.6,103,107.5z"/>
	<path class="st0" d="M185.3,127.7c0-8.9-9.9-13.6-19.3-18.2c-10-4.8-20.3-9.8-20.3-19.2c0-13.3,12.6-18.5,24.2-19
		c-6.3,1.3-10.6,6-10.6,12.1c0,7,8.5,11,17.4,15.3c10.6,5.1,22.6,10.7,22.6,22.2c0,9.7-7.2,20-27.3,21
		C180,140.4,185.3,135,185.3,127.7z M145.8,130.5c0-3.5,2.7-6.6,6.4-6.6c3.4,0,6.2,2.7,6.2,6.3c0,3.2-2.5,5.9-5.3,6.5
		c0.3,1.7,1.5,3.1,3,3.8C151.4,138.8,145.8,135.6,145.8,130.5z M181.6,83.3c0-3.3,2.5-5.9,5.4-6.5c-0.4-1.8-1.5-3.1-3-3.9
		c5.2,1.9,10.4,5.1,10.4,10.1c0,3.6-2.7,6.6-6.4,6.6C184.5,89.6,181.6,86.8,181.6,83.3z"/>
	<path class="st0" d="M212.1,131V81.5c0-7.2-4.9-8.4-7.7-9h22.4V132c0,4.7,1.7,7.6,5.2,8.8h-27.2C207.8,140.1,212.1,138.3,212.1,131
		z M260.3,107.7c0-22-7.2-32.9-20.9-35c23.2,1.5,37.5,14.5,37.5,33.3c0,6.4-1.7,30.7-31.6,34.9C255,137.2,260.3,126.6,260.3,107.7z"
		/>
</g>
<g>
	<path class="st0" d="M76.5,170.5v-12.4c0-1.7-1.2-2-2-2.2H82c-0.7,0.1-2,0.5-2,2.2v12.4c0,1.8,1.1,2.2,1.9,2.4h-7.3
		C75.4,172.7,76.5,172.3,76.5,170.5z"/>
	<path class="st0" d="M95.5,172.9h-4.9c0.8-0.2,2.2-0.6,2.4-2.5C93.3,172.3,94.7,172.7,95.5,172.9z M96.2,156l9.5,12v5.6l-13.3-16.7
		c-0.5-0.6-1.4-0.9-1.7-0.9H96.2z M108.1,156c-0.8,0.2-2.2,0.6-2.4,2.5c-0.2-1.9-1.6-2.3-2.5-2.5H108.1z"/>
	<path class="st0" d="M116.9,155.5c1.3,0.2,2.5,0.4,4.1,0.5c-2.2,0.2-3.5,1.6-4.7,4.9L116.9,155.5z M122.8,170.5V156h3.6l0,14.5
		c0,1.8,1.1,2.2,1.8,2.4H121C121.8,172.7,122.8,172.3,122.8,170.5z M128.2,155.9c1.6-0.1,2.9-0.2,4.1-0.5l0.6,5.4
		C131.7,157.5,130.4,156.2,128.2,155.9z"/>
	<path class="st0" d="M149.2,172.9h-6.9c0.8-0.2,1.8-0.6,1.8-2.4v-12.3c0-1.8-1.2-2.1-2-2.2h5.6v14.7
		C147.8,171.9,148.3,172.6,149.2,172.9z M153.4,167.5c0-1-0.9-2.9-2.2-3.1c1.2-0.2,2.2-1.7,2.2-2.8V167.5z M151.8,155.9
		c1.5,0,3.3-0.2,4.3-0.6c0,0,0.4,3.9,0.6,5.1C156.4,159.1,154.2,156.2,151.8,155.9z M157.2,168c0,0.1-0.6,5.4-0.6,5.4
		c-1.1-0.4-2.8-0.5-4.3-0.6C154.7,172.5,155.8,171.3,157.2,168z M156.7,160.5c0,0,0-0.1,0-0.1C156.7,160.5,156.7,160.5,156.7,160.5z
		 M156.7,160.6L156.7,160.6c0,0,0,0.1,0,0.1C156.7,160.7,156.7,160.7,156.7,160.6z"/>
	<path class="st0" d="M167.1,170.5v-12.4c0-1.8-1.2-2-2-2.2h5.6v14.5c0,1.8,1.1,2.2,1.8,2.4h-7.2
		C166.1,172.7,167.1,172.3,167.1,170.5z M172.3,165.5c1.1,0.8,2.8,1,4.6,0.9l3.1,4.6c0.9,1.3,1.7,1.7,2.2,1.9h-4.8L172.3,165.5z
		 M172.7,164.7c2.2-0.3,3.6-2,3.6-4.3s-1.3-4-3.3-4.4c4.6,0.1,7.2,1.4,7.2,4.2c0,2.9-2.7,4.5-7,4.5
		C173,164.7,172.9,164.7,172.7,164.7z"/>
	<path class="st0" d="M192.7,170.5v-12.4c0-1.7-1.2-2-2-2.2h7.5c-0.7,0.1-2,0.5-2,2.2v12.4c0,1.8,1.1,2.2,1.9,2.4h-7.3
		C191.6,172.7,192.7,172.3,192.7,170.5z"/>
	<path class="st0" d="M206.2,164.4c0-4.7,3.2-8.2,7.9-8.7c-2.4,0.8-3.7,4-3.7,8.8c0,5.8,1.8,8,3.6,8.6
		C208.2,172.6,206.2,168.1,206.2,164.4z M220.2,164.5c0-5-1.2-8-3.6-8.7c5.4,0.6,7.8,4.7,7.8,8.6c0,3.9-2.4,8.1-7.6,8.8
		C219,172.3,220.2,169.4,220.2,164.5z"/>
	<path class="st0" d="M234.3,170.5v-12.4c0-1.8-1.2-2-2-2.2h5.6v14.5c0,1.8,1.1,2.2,1.8,2.4h-7.2
		C233.3,172.7,234.3,172.3,234.3,170.5z M239.5,165.5c1.1,0.8,2.8,1,4.6,0.9l3.1,4.6c0.9,1.3,1.7,1.7,2.2,1.9h-4.8L239.5,165.5z
		 M239.9,164.7c2.2-0.3,3.6-2,3.6-4.3s-1.3-4-3.3-4.4c4.6,0.1,7.2,1.4,7.2,4.2c0,2.9-2.7,4.5-7,4.5
		C240.2,164.7,240,164.7,239.9,164.7z"/>
	<path class="st0" d="M267,169.7c0-2.2-2.4-3.4-4.8-4.5c-2.5-1.2-5-2.4-5-4.8c0-3.3,3.1-4.6,6-4.7c-1.6,0.3-2.6,1.5-2.6,3
		c0,1.7,2.1,2.7,4.3,3.8c2.6,1.3,5.6,2.7,5.6,5.5c0,2.4-1.8,5-6.8,5.2C265.7,172.8,267,171.5,267,169.7z M257.2,170.3
		c0-0.9,0.7-1.6,1.6-1.6c0.8,0,1.5,0.7,1.5,1.6c0,0.8-0.6,1.5-1.3,1.6c0.1,0.4,0.4,0.8,0.8,0.9C258.6,172.4,257.2,171.6,257.2,170.3
		z M266.1,158.7c0-0.8,0.6-1.5,1.3-1.6c-0.1-0.4-0.4-0.8-0.7-1c1.3,0.5,2.6,1.3,2.6,2.5c0,0.9-0.7,1.6-1.6,1.6
		C266.8,160.2,266.1,159.5,266.1,158.7z"/>
</g>
</svg>
