<?xml version="1.0" encoding="utf-8"?>
<!-- Generator: Adobe Illustrator 22.0.1, SVG Export Plug-In . SVG Version: 6.00 Build 0)  -->
<svg version="1.1" id="Layer_1" xmlns="http://www.w3.org/2000/svg" xmlns:xlink="http://www.w3.org/1999/xlink" x="0px" y="0px"
	 viewBox="0 0 1320.3 306.4" style="enable-background:new 0 0 1320.3 306.4;" xml:space="preserve">
<style type="text/css">
	.st0{fill:#FFFFFF;}
</style>
<g>
	<g>
		<path class="st0" d="M213.4,225.2v-19.2h113.2c10.9,0,16.3-4,16.3-12v-16.5c0-8-5.4-12-16.3-12h-76.6c-7.4,0-13.7-0.8-18.9-2.3
			c-5.2-1.5-9.4-3.7-12.7-6.5c-3.3-2.8-5.6-6.1-7.1-9.9c-1.5-3.8-2.2-8.1-2.2-12.8v-7.6c0-4.7,0.7-8.9,2.2-12.8
			c1.5-3.8,3.9-7.1,7.1-9.9c3.3-2.8,7.5-4.9,12.7-6.5c5.2-1.5,11.5-2.3,18.9-2.3h110.3v19.2H250.1c-10.9,0-16.3,4-16.3,12v8
			c0,8,5.4,12,16.3,12h76.6c7.4,0,13.7,0.8,18.9,2.3c5.2,1.5,9.4,3.7,12.7,6.5c3.3,2.8,5.6,6.1,7.1,9.9c1.5,3.8,2.2,8.1,2.2,12.8
			v16.1c0,4.7-0.7,8.9-2.2,12.8c-1.5,3.8-3.9,7.1-7.1,9.9c-3.3,2.8-7.5,4.9-12.7,6.5c-5.2,1.5-11.5,2.3-18.9,2.3H213.4z"/>
		<path class="st0" d="M532,225.2l-67.2-104.9l-68.3,104.9h-27.4l86.6-130.2h17.9l86,130.2H532z"/>
		<path class="st0" d="M610.1,225.2L523.5,94.9h27.9l68.1,104.9l67.3-104.9H714l-86,130.2H610.1z"/>
		<path class="st0" d="M727,225.2V94.9h24.6v130.2H727z"/>
		<path class="st0" d="M848.2,225.2v-52.9l-83.6-77.3H796l64.4,59.6l64.4-59.6h31.1l-83.1,77.3v52.9H848.2z"/>
		<path class="st0" d="M1128.3,225.2L989.3,123.8v101.4h-21.5V94.9h21.3l129.7,96.8V94.9h21.5v130.2H1128.3z"/>
		<path class="st0" d="M1224.8,225.2v-111h-68.3V94.9h159.3v19.2h-66.4v111H1224.8z"/>
	</g>
</g>
<g>
	<path class="st0" d="M186.2,208.4c-2.4-17.2-10.8-34.7-26.4-55c-7.8-10.2-16.5-20-24.9-29.5c-11.4-12.9-22.1-25-29.6-36.9
		c-7-11.1-10.3-20.9-10.1-29.7C96.3,14.6,161.6,0.1,162.3,0l-19,0c-5,0-17.8,0-33.1,0l-9.8,0c0,0,0,0,0,0c-33.6,0-73.5,0.1-73.5,0.1
		l-0.7,0.7C25.1,2-0.3,28.1,0,77.6C0,84.3,0.6,91.1,1.5,98c2.4,17.2,10.8,34.7,26.4,55c7.8,10.2,16.5,20,24.9,29.5
		c11.4,12.9,22.1,25,29.6,36.9c7,11.1,10.3,20.9,10.1,29.7c-1.1,42.6-66.5,57.2-67.1,57.3l19,0c5,0,17.8,0,33.1,0l9.8,0c0,0,0,0,0,0
		c33.6,0,73.5-0.1,73.5-0.1l0.7-0.7c1.1-1.1,26.5-27.2,26.2-76.7C187.7,222.1,187.2,215.3,186.2,208.4z"/>
</g>
</svg>
