<svg xmlns="http://www.w3.org/2000/svg" viewBox="0 0 565 67.95"><title>typeking-white</title><g id="Layer_2" data-name="Layer 2"><g id="Layer_1-2" data-name="Layer 1"><path d="M0,1.63H35.76V13.77H24V66.32H11.48V13.77H0Z" style="fill:#fff"/><path d="M55.91,1.63H69.13L81.2,24.9l12-23.27h13.05L87.33,38.31v28H74.93v-28Z" style="fill:#fff"/><path d="M132.62,1.63h13.06q10.6,0,15.28,2a15.57,15.57,0,0,1,7.39,6.34,19.56,19.56,0,0,1,2.71,10.49,17.64,17.64,0,0,1-3.54,11.26,18.37,18.37,0,0,1-9.61,6.24q-3.57,1-13,1v27.4H132.62Zm12.31,25.29h3.92a20.86,20.86,0,0,0,6.42-.67,5.72,5.72,0,0,0,2.83-2.18,6.38,6.38,0,0,0,1-3.68,5.89,5.89,0,0,0-2.91-5.48q-2.1-1.27-7.82-1.28h-3.48Z" style="fill:#fff"/><path d="M199.45,1.63h35.32V13.68H211.68v11.7h23.09V37.21H211.68v17h23.09V66.32H199.45Z" style="fill:#fff"/><path d="M316.59,66.32H304.14V1.63h12.45" style="fill:#fff"/><path d="M375.33,1.63h12.23V66.32H375.33Z" style="fill:#fff"/><path d="M417.76,1.63h11.81L457.26,44.2V1.63h12.31V66.32H457.72L430.08,23.88V66.32H417.76Z" style="fill:#fff"/><path d="M560.38,12.18l-8.67,8.58q-8.24-8.72-19.2-8.71a21.94,21.94,0,0,0-16,6.33,20.79,20.79,0,0,0-6.45,15.4,21.3,21.3,0,0,0,6.69,15.87,22.79,22.79,0,0,0,16.52,6.51A20.23,20.23,0,0,0,544,53.48a18.91,18.91,0,0,0,7.07-8.4H532.36V33.51h32.55l.09,2.73a31.72,31.72,0,0,1-4.4,16.1A30.84,30.84,0,0,1,549.21,64a32.47,32.47,0,0,1-16.41,4,36.45,36.45,0,0,1-18-4.38,32,32,0,0,1-12.49-12.46,34.83,34.83,0,0,1-4.59-17.46,32.46,32.46,0,0,1,8.49-22.35Q516.31,0,532.45,0a40,40,0,0,1,15.79,3.12A36.29,36.29,0,0,1,560.38,12.18Z" style="fill:#fff"/><polygon points="334.39 20.9 352.4 3.39 335.61 7.15 319.89 22.44 335.71 33.98 319.89 45.47 335.55 60.78 352.24 64.56 334.39 47.1 352.4 34.03 334.39 20.9" style="fill:#fff"/></g></g></svg>