<svg xmlns="http://www.w3.org/2000/svg" viewBox="0 0 270.8 72.2"><title>usdrs</title><g id="Layer_2" data-name="Layer 2"><g id="Layer_1-2" data-name="Layer 1"><path d="M2.9,29V27.2a2.51,2.51,0,0,0-.2-1,.78.78,0,0,0-.4-.4,2.15,2.15,0,0,0-1-.2L0,25.5V24.2a23.55,23.55,0,0,1,2.5.1H8.4a17.72,17.72,0,0,0,2.4-.1v1.3l-1.3.1a2.15,2.15,0,0,0-1,.2.78.78,0,0,0-.4.4,2.15,2.15,0,0,0-.2,1V37.6c0,1.2,0,2.3.1,3.3a6.12,6.12,0,0,0,.7,2.5A3.82,3.82,0,0,0,10.6,45a8.29,8.29,0,0,0,3.4.6,8.47,8.47,0,0,0,3.5-.6,3.55,3.55,0,0,0,1.9-1.7,6.67,6.67,0,0,0,.9-2.6,32.81,32.81,0,0,0,.2-3.4V27.2a2.51,2.51,0,0,0-.2-1,.78.78,0,0,0-.4-.4,2.15,2.15,0,0,0-1-.2l-1.3-.1V24.2a13.4,13.4,0,0,1,2,.1,13.35,13.35,0,0,0,2,0h2a13.4,13.4,0,0,0,2-.1v1.3l-1.3.1a2.15,2.15,0,0,0-1,.2.78.78,0,0,0-.4.4,2.15,2.15,0,0,0-.2,1V39.1c0,3.2-.8,5.6-2.4,7.1s-4,2.3-7.2,2.3A18.14,18.14,0,0,1,8.8,48a8.86,8.86,0,0,1-3.1-1.4,6.28,6.28,0,0,1-1.9-2.1,6,6,0,0,1-.6-2.7V29Z" style="fill:#fff"/><path d="M59.4,40.8l.3,3.1a3.33,3.33,0,0,0,1,1.1c.4.3.9.6,1.4.9a7.49,7.49,0,0,0,1.6.5,7.72,7.72,0,0,0,1.5.2,7.11,7.11,0,0,0,2.1-.3,5.56,5.56,0,0,0,1.7-.9A5.26,5.26,0,0,0,70.2,44a4.21,4.21,0,0,0,.4-2,3.06,3.06,0,0,0-.7-2,4.32,4.32,0,0,0-2.2-1.3l-4.9-1.5a8,8,0,0,1-3.6-2.1,5.22,5.22,0,0,1-1.4-3.8,7.28,7.28,0,0,1,.7-3.5,5.88,5.88,0,0,1,2-2.4,7,7,0,0,1,2.9-1.3,13.42,13.42,0,0,1,3.5-.4,18.41,18.41,0,0,1,3.3.3,16.81,16.81,0,0,1,3.2.9l.2.4a9.68,9.68,0,0,0-.4,2.2,24.37,24.37,0,0,0-.1,2.7H71.7l-.2-2.9a5.52,5.52,0,0,0-2.1-1.4,5.87,5.87,0,0,0-2.5-.5,6.65,6.65,0,0,0-2.1.3,3.77,3.77,0,0,0-1.5.9,3.81,3.81,0,0,0-.9,1.3,4.15,4.15,0,0,0-.3,1.6,2.52,2.52,0,0,0,.9,2,6.63,6.63,0,0,0,2.8,1.4l4,1A7.42,7.42,0,0,1,73.6,36,5.64,5.64,0,0,1,75,39.9a7.63,7.63,0,0,1-.9,3.8,7.22,7.22,0,0,1-2.3,2.6,8.59,8.59,0,0,1-3.2,1.5,15.83,15.83,0,0,1-3.8.5,15,15,0,0,1-3.7-.4,20.63,20.63,0,0,1-3.5-1.2c.2-1.1.3-2.1.4-3.1s.1-2,.1-3h1.3Z" style="fill:#fff"/><path d="M143.6,28.2a7.29,7.29,0,0,0-3.4-1.7,18.78,18.78,0,0,0-5.1-.6h-1c-.3,0-.7.1-1.1.1V45.8c.5.1,1,.1,1.5.2H136c3.5,0,6-.9,7.6-2.6s2.4-4.3,2.4-7.8a14.18,14.18,0,0,0-.6-4.4A5.8,5.8,0,0,0,143.6,28.2Z" style="fill:#fff"/><path d="M142.6,0,102.1,40.5l31.7,31.7,40.5-40.5ZM147,44.6a14.11,14.11,0,0,1-4.5,2.5,15.86,15.86,0,0,1-5.3.8h-.3c-.9,0-1.7-.1-2.6-.1h-5.2a25.28,25.28,0,0,0-2.7.1v-.8l1.1-.6a1.16,1.16,0,0,0,.5-.7,4.51,4.51,0,0,0,.1-1.3V27.2a2.51,2.51,0,0,0-.2-1,.78.78,0,0,0-.4-.4,2.15,2.15,0,0,0-1-.2l-1.3-.1V24.2a29.12,29.12,0,0,1,3.1.1h11.3a19,19,0,0,1,5,.6,9.3,9.3,0,0,1,3.7,1.9,8.56,8.56,0,0,1,2.3,3.3,14.55,14.55,0,0,1,.8,5,12,12,0,0,1-1.2,5.5A13.78,13.78,0,0,1,147,44.6Z" style="fill:#fff"/><path d="M197.6,29V27.2a2.15,2.15,0,0,0-.2-1,.78.78,0,0,0-.4-.4,2.15,2.15,0,0,0-1-.2l-1.3-.1V24.2a30.09,30.09,0,0,1,3.1.1,24.32,24.32,0,0,0,2.7,0H204c1.1,0,2.3,0,3.5-.1h.3a16.59,16.59,0,0,1,2.4.2,6.56,6.56,0,0,1,2.1.8,3.64,3.64,0,0,1,1.4,1.6,4.87,4.87,0,0,1,.5,2.5,4.64,4.64,0,0,1-.4,2.1,6.19,6.19,0,0,1-1.1,1.7,5.5,5.5,0,0,1-1.7,1.3c-.7.3-1.3.7-2,1l6.3,9.5a1.21,1.21,0,0,0,.5.5,2.65,2.65,0,0,0,.6.5l.6.3c.2.1.5.1.8.2v1.4c-.6,0-1.1-.1-1.7-.1h-3.3a9.15,9.15,0,0,0-1.6.1l-7.8-12.1.3-.6h.6a4.48,4.48,0,0,0,2-.4,5.37,5.37,0,0,0,1.6-1,4.35,4.35,0,0,0,1-1.6,6.47,6.47,0,0,0,.4-2,4.16,4.16,0,0,0-1.3-3.3,5.33,5.33,0,0,0-3.4-1.1,4.87,4.87,0,0,0-1.2.1,1.49,1.49,0,0,0-1,.3V44.8a2.15,2.15,0,0,0,.2,1c.1.1.2.3.4.3a5.63,5.63,0,0,0,1,.2l1.3.1v1.4c-.7,0-1.5-.1-2.4-.1h-6a17.72,17.72,0,0,0-2.4.1V46.4l1.3-.1a2.15,2.15,0,0,0,1-.2,1.38,1.38,0,0,0,.4-.3,2.15,2.15,0,0,0,.2-1V29Z" style="fill:#fff"/><path d="M255.2,40.8l.3,3.1a3.33,3.33,0,0,0,1,1.1,11,11,0,0,0,1.4.9,7.49,7.49,0,0,0,1.6.5,7.72,7.72,0,0,0,1.5.2,7.11,7.11,0,0,0,2.1-.3,5.56,5.56,0,0,0,1.7-.9A5.26,5.26,0,0,0,266,44a4.21,4.21,0,0,0,.4-2,3.06,3.06,0,0,0-.7-2,4.32,4.32,0,0,0-2.2-1.3l-4.9-1.5a8,8,0,0,1-3.6-2.1,5,5,0,0,1-1.4-3.8,7.28,7.28,0,0,1,.7-3.5,5.88,5.88,0,0,1,2-2.4,7,7,0,0,1,2.9-1.3,13.42,13.42,0,0,1,3.5-.4,18.41,18.41,0,0,1,3.3.3,16.81,16.81,0,0,1,3.2.9l.2.4a9.68,9.68,0,0,0-.4,2.2,24.37,24.37,0,0,0-.1,2.7h-1.4l-.2-2.9a5.52,5.52,0,0,0-2.1-1.4,5.87,5.87,0,0,0-2.5-.5,6.65,6.65,0,0,0-2.1.3,3.77,3.77,0,0,0-1.5.9,3.81,3.81,0,0,0-.9,1.3,4.15,4.15,0,0,0-.3,1.6,2.52,2.52,0,0,0,.9,2,6.63,6.63,0,0,0,2.8,1.4l4,1a7.42,7.42,0,0,1,3.8,2.1,5.64,5.64,0,0,1,1.4,3.9,7.63,7.63,0,0,1-.9,3.8,7.22,7.22,0,0,1-2.3,2.6,8.59,8.59,0,0,1-3.2,1.5,15.83,15.83,0,0,1-3.8.5,15,15,0,0,1-3.7-.4,20.63,20.63,0,0,1-3.5-1.2c.2-1.1.3-2.1.4-3.1s.1-2,.1-3h1.3Z" style="fill:#fff"/></g></g></svg>